<svg width="1366" height="80" viewBox="0 0 1366 80" fill="none" xmlns="http://www.w3.org/2000/svg">
<rect width="1366" height="80" fill="white"/>
<path d="M140.45 33.436V35.47H135.212V38.692H139.226V40.69H135.212V46H132.692V33.436H140.45ZM151.777 36.028L145.603 50.716H142.921L145.081 45.748L141.085 36.028H143.911L146.485 42.994L149.095 36.028H151.777ZM158.662 35.884C159.85 35.884 160.81 36.262 161.542 37.018C162.274 37.762 162.64 38.806 162.64 40.15V46H160.12V40.492C160.12 39.7 159.922 39.094 159.526 38.674C159.13 38.242 158.59 38.026 157.906 38.026C157.21 38.026 156.658 38.242 156.25 38.674C155.854 39.094 155.656 39.7 155.656 40.492V46H153.136V36.028H155.656V37.27C155.992 36.838 156.418 36.502 156.934 36.262C157.462 36.01 158.038 35.884 158.662 35.884ZM167.556 37.576C167.88 37.048 168.3 36.634 168.816 36.334C169.344 36.034 169.944 35.884 170.616 35.884V38.53H169.95C169.158 38.53 168.558 38.716 168.15 39.088C167.754 39.46 167.556 40.108 167.556 41.032V46H165.036V36.028H167.556V37.576ZM176.741 46.162C175.781 46.162 174.917 45.952 174.149 45.532C173.381 45.1 172.775 44.494 172.331 43.714C171.899 42.934 171.683 42.034 171.683 41.014C171.683 39.994 171.905 39.094 172.349 38.314C172.805 37.534 173.423 36.934 174.203 36.514C174.983 36.082 175.853 35.866 176.813 35.866C177.773 35.866 178.643 36.082 179.423 36.514C180.203 36.934 180.815 37.534 181.259 38.314C181.715 39.094 181.943 39.994 181.943 41.014C181.943 42.034 181.709 42.934 181.241 43.714C180.785 44.494 180.161 45.1 179.369 45.532C178.589 45.952 177.713 46.162 176.741 46.162ZM176.741 43.966C177.197 43.966 177.623 43.858 178.019 43.642C178.427 43.414 178.751 43.078 178.991 42.634C179.231 42.19 179.351 41.65 179.351 41.014C179.351 40.066 179.099 39.34 178.595 38.836C178.103 38.32 177.497 38.062 176.777 38.062C176.057 38.062 175.451 38.32 174.959 38.836C174.479 39.34 174.239 40.066 174.239 41.014C174.239 41.962 174.473 42.694 174.941 43.21C175.421 43.714 176.021 43.966 176.741 43.966Z" fill="#383E54"/>
<g clip-path="url(#clip0_1_2170)">
<path d="M93.4913 25.6406H110.731L98.0565 44.4902H80.8164L93.4913 25.6406Z" fill="#5978FF"/>
<path d="M94.2452 46.2361L89.3359 53.5371H107.394L120.069 34.6875H106.741L98.9752 46.2361H94.2452Z" fill="#F8971F"/>
</g>
<path d="M479.712 34.832V46H477.472V41.248H472.688V46H470.448V34.832H472.688V39.424H477.472V34.832H479.712ZM485.853 46.144C484.999 46.144 484.231 45.9573 483.549 45.584C482.866 45.2 482.327 44.6613 481.933 43.968C481.549 43.2747 481.357 42.4747 481.357 41.568C481.357 40.6613 481.554 39.8613 481.949 39.168C482.354 38.4747 482.903 37.9413 483.597 37.568C484.29 37.184 485.063 36.992 485.917 36.992C486.77 36.992 487.543 37.184 488.237 37.568C488.93 37.9413 489.474 38.4747 489.869 39.168C490.274 39.8613 490.477 40.6613 490.477 41.568C490.477 42.4747 490.269 43.2747 489.852 43.968C489.447 44.6613 488.893 45.2 488.189 45.584C487.495 45.9573 486.717 46.144 485.853 46.144ZM485.853 44.192C486.258 44.192 486.637 44.096 486.989 43.904C487.351 43.7013 487.639 43.4027 487.853 43.008C488.066 42.6133 488.173 42.1333 488.173 41.568C488.173 40.7253 487.949 40.08 487.501 39.632C487.063 39.1733 486.525 38.944 485.885 38.944C485.245 38.944 484.706 39.1733 484.269 39.632C483.842 40.08 483.629 40.7253 483.629 41.568C483.629 42.4107 483.837 43.0613 484.253 43.52C484.679 43.968 485.213 44.192 485.853 44.192ZM503.128 37.008C504.216 37.008 505.09 37.344 505.752 38.016C506.424 38.6773 506.76 39.6053 506.76 40.8V46H504.52V41.104C504.52 40.4107 504.344 39.8827 503.992 39.52C503.64 39.1467 503.16 38.96 502.552 38.96C501.944 38.96 501.458 39.1467 501.096 39.52C500.744 39.8827 500.568 40.4107 500.568 41.104V46H498.328V41.104C498.328 40.4107 498.152 39.8827 497.8 39.52C497.448 39.1467 496.968 38.96 496.36 38.96C495.741 38.96 495.25 39.1467 494.888 39.52C494.536 39.8827 494.36 40.4107 494.36 41.104V46H492.12V37.136H494.36V38.208C494.648 37.8347 495.016 37.5413 495.464 37.328C495.922 37.1147 496.424 37.008 496.968 37.008C497.661 37.008 498.28 37.1573 498.824 37.456C499.368 37.744 499.789 38.16 500.088 38.704C500.376 38.192 500.792 37.7813 501.336 37.472C501.89 37.1627 502.488 37.008 503.128 37.008ZM517.125 41.376C517.125 41.696 517.104 41.984 517.061 42.24H510.581C510.635 42.88 510.859 43.3813 511.253 43.744C511.648 44.1067 512.133 44.288 512.709 44.288C513.541 44.288 514.133 43.9307 514.485 43.216H516.901C516.645 44.0693 516.155 44.7733 515.429 45.328C514.704 45.872 513.813 46.144 512.757 46.144C511.904 46.144 511.136 45.9573 510.453 45.584C509.781 45.2 509.253 44.6613 508.869 43.968C508.496 43.2747 508.309 42.4747 508.309 41.568C508.309 40.6507 508.496 39.8453 508.869 39.152C509.243 38.4587 509.765 37.9253 510.437 37.552C511.109 37.1787 511.883 36.992 512.757 36.992C513.6 36.992 514.352 37.1733 515.013 37.536C515.685 37.8987 516.203 38.416 516.565 39.088C516.939 39.7493 517.125 40.512 517.125 41.376ZM514.805 40.736C514.795 40.16 514.587 39.7013 514.181 39.36C513.776 39.008 513.28 38.832 512.693 38.832C512.139 38.832 511.669 39.0027 511.285 39.344C510.912 39.6747 510.683 40.1387 510.597 40.736H514.805Z" fill="#F8971F"/>
<path d="M553.18 36.352V39.616H557.02V41.104H553.18V44.512H557.5V46H551.356V34.864H557.5V36.352H553.18ZM563.523 41.536L566.371 46H564.307L562.403 43.008L560.611 46H558.707L561.555 41.664L558.707 37.184H560.771L562.675 40.176L564.467 37.184H566.371L563.523 41.536ZM569.555 38.48C569.865 38.0747 570.286 37.7333 570.819 37.456C571.353 37.1787 571.955 37.04 572.627 37.04C573.395 37.04 574.094 37.232 574.723 37.616C575.363 37.9893 575.865 38.5173 576.227 39.2C576.59 39.8827 576.771 40.6667 576.771 41.552C576.771 42.4373 576.59 43.232 576.227 43.936C575.865 44.6293 575.363 45.1733 574.723 45.568C574.094 45.952 573.395 46.144 572.627 46.144C571.955 46.144 571.358 46.0107 570.835 45.744C570.313 45.4667 569.886 45.1253 569.555 44.72V50.192H567.731V37.184H569.555V38.48ZM574.915 41.552C574.915 40.944 574.787 40.4213 574.531 39.984C574.286 39.536 573.955 39.2 573.539 38.976C573.134 38.7413 572.697 38.624 572.227 38.624C571.769 38.624 571.331 38.7413 570.915 38.976C570.51 39.2107 570.179 39.552 569.923 40C569.678 40.448 569.555 40.976 569.555 41.584C569.555 42.192 569.678 42.7253 569.923 43.184C570.179 43.632 570.51 43.9733 570.915 44.208C571.331 44.4427 571.769 44.56 572.227 44.56C572.697 44.56 573.134 44.4427 573.539 44.208C573.955 43.9627 574.286 43.6107 574.531 43.152C574.787 42.6933 574.915 42.16 574.915 41.552ZM580.399 34.16V46H578.575V34.16H580.399ZM586.618 46.144C585.786 46.144 585.034 45.9573 584.362 45.584C583.69 45.2 583.162 44.6667 582.778 43.984C582.394 43.2907 582.202 42.4907 582.202 41.584C582.202 40.688 582.399 39.8933 582.794 39.2C583.188 38.5067 583.727 37.9733 584.41 37.6C585.092 37.2267 585.855 37.04 586.698 37.04C587.54 37.04 588.303 37.2267 588.986 37.6C589.668 37.9733 590.207 38.5067 590.602 39.2C590.996 39.8933 591.194 40.688 591.194 41.584C591.194 42.48 590.991 43.2747 590.586 43.968C590.18 44.6613 589.626 45.2 588.922 45.584C588.228 45.9573 587.46 46.144 586.618 46.144ZM586.618 44.56C587.087 44.56 587.524 44.448 587.93 44.224C588.346 44 588.682 43.664 588.938 43.216C589.194 42.768 589.322 42.224 589.322 41.584C589.322 40.944 589.199 40.4053 588.954 39.968C588.708 39.52 588.383 39.184 587.978 38.96C587.572 38.736 587.135 38.624 586.666 38.624C586.196 38.624 585.759 38.736 585.354 38.96C584.959 39.184 584.644 39.52 584.41 39.968C584.175 40.4053 584.058 40.944 584.058 41.584C584.058 42.5333 584.298 43.2693 584.778 43.792C585.268 44.304 585.882 44.56 586.618 44.56ZM594.821 38.464C595.088 38.016 595.44 37.6693 595.877 37.424C596.325 37.168 596.853 37.04 597.461 37.04V38.928H596.997C596.282 38.928 595.738 39.1093 595.365 39.472C595.002 39.8347 594.821 40.464 594.821 41.36V46H592.997V37.184H594.821V38.464ZM607.218 41.376C607.218 41.7067 607.196 42.0053 607.154 42.272H600.418C600.471 42.976 600.732 43.5413 601.202 43.968C601.671 44.3947 602.247 44.608 602.93 44.608C603.911 44.608 604.604 44.1973 605.01 43.376H606.977C606.711 44.1867 606.226 44.8533 605.522 45.376C604.828 45.888 603.964 46.144 602.93 46.144C602.087 46.144 601.33 45.9573 600.658 45.584C599.996 45.2 599.474 44.6667 599.09 43.984C598.716 43.2907 598.53 42.4907 598.53 41.584C598.53 40.6773 598.711 39.8827 599.074 39.2C599.447 38.5067 599.964 37.9733 600.626 37.6C601.298 37.2267 602.066 37.04 602.93 37.04C603.762 37.04 604.503 37.2213 605.154 37.584C605.804 37.9467 606.311 38.4587 606.674 39.12C607.036 39.7707 607.218 40.5227 607.218 41.376ZM605.314 40.8C605.303 40.128 605.063 39.5893 604.594 39.184C604.124 38.7787 603.543 38.576 602.85 38.576C602.22 38.576 601.682 38.7787 601.234 39.184C600.786 39.5787 600.519 40.1173 600.434 40.8H605.314ZM619.873 43.728H615.217L614.417 46H612.513L616.497 34.864H618.609L622.593 46H620.673L619.873 43.728ZM619.361 42.24L617.553 37.072L615.729 42.24H619.361ZM623.717 41.552C623.717 40.6667 623.898 39.8827 624.261 39.2C624.634 38.5173 625.136 37.9893 625.765 37.616C626.405 37.232 627.114 37.04 627.893 37.04C628.469 37.04 629.034 37.168 629.589 37.424C630.154 37.6693 630.602 38 630.933 38.416V34.16H632.773V46H630.933V44.672C630.634 45.0987 630.218 45.4507 629.685 45.728C629.162 46.0053 628.56 46.144 627.877 46.144C627.109 46.144 626.405 45.952 625.765 45.568C625.136 45.1733 624.634 44.6293 624.261 43.936C623.898 43.232 623.717 42.4373 623.717 41.552ZM630.933 41.584C630.933 40.976 630.805 40.448 630.549 40C630.304 39.552 629.978 39.2107 629.573 38.976C629.168 38.7413 628.73 38.624 628.261 38.624C627.792 38.624 627.354 38.7413 626.949 38.976C626.544 39.2 626.213 39.536 625.957 39.984C625.712 40.4213 625.589 40.944 625.589 41.552C625.589 42.16 625.712 42.6933 625.957 43.152C626.213 43.6107 626.544 43.9627 626.949 44.208C627.365 44.4427 627.802 44.56 628.261 44.56C628.73 44.56 629.168 44.4427 629.573 44.208C629.978 43.9733 630.304 43.632 630.549 43.184C630.805 42.7253 630.933 42.192 630.933 41.584ZM638.577 44.368L641.073 37.184H643.009L639.649 46H637.473L634.129 37.184H636.081L638.577 44.368ZM645.316 36.016C644.985 36.016 644.708 35.904 644.484 35.68C644.26 35.456 644.148 35.1787 644.148 34.848C644.148 34.5173 644.26 34.24 644.484 34.016C644.708 33.792 644.985 33.68 645.316 33.68C645.636 33.68 645.908 33.792 646.132 34.016C646.356 34.24 646.468 34.5173 646.468 34.848C646.468 35.1787 646.356 35.456 646.132 35.68C645.908 35.904 645.636 36.016 645.316 36.016ZM646.212 37.184V46H644.388V37.184H646.212ZM651.806 46.144C651.113 46.144 650.489 46.0213 649.934 45.776C649.39 45.52 648.958 45.1787 648.638 44.752C648.318 44.3147 648.148 43.8293 648.126 43.296H650.014C650.046 43.6693 650.222 43.984 650.542 44.24C650.873 44.4853 651.284 44.608 651.774 44.608C652.286 44.608 652.681 44.512 652.958 44.32C653.246 44.1173 653.39 43.8613 653.39 43.552C653.39 43.2213 653.23 42.976 652.91 42.816C652.601 42.656 652.105 42.48 651.422 42.288C650.761 42.1067 650.222 41.9307 649.806 41.76C649.39 41.5893 649.028 41.328 648.718 40.976C648.42 40.624 648.27 40.16 648.27 39.584C648.27 39.1147 648.409 38.688 648.686 38.304C648.964 37.9093 649.358 37.6 649.87 37.376C650.393 37.152 650.99 37.04 651.662 37.04C652.665 37.04 653.47 37.296 654.078 37.808C654.697 38.3093 655.028 38.9973 655.07 39.872H653.246C653.214 39.4773 653.054 39.1627 652.766 38.928C652.478 38.6933 652.089 38.576 651.598 38.576C651.118 38.576 650.75 38.6667 650.494 38.848C650.238 39.0293 650.11 39.2693 650.11 39.568C650.11 39.8027 650.196 40 650.366 40.16C650.537 40.32 650.745 40.448 650.99 40.544C651.236 40.6293 651.598 40.7413 652.078 40.88C652.718 41.0507 653.241 41.2267 653.646 41.408C654.062 41.5787 654.42 41.8347 654.718 42.176C655.017 42.5173 655.172 42.9707 655.182 43.536C655.182 44.0373 655.044 44.4853 654.766 44.88C654.489 45.2747 654.094 45.584 653.582 45.808C653.081 46.032 652.489 46.144 651.806 46.144ZM660.977 46.144C660.145 46.144 659.393 45.9573 658.721 45.584C658.049 45.2 657.521 44.6667 657.137 43.984C656.753 43.2907 656.561 42.4907 656.561 41.584C656.561 40.688 656.758 39.8933 657.153 39.2C657.548 38.5067 658.086 37.9733 658.769 37.6C659.452 37.2267 660.214 37.04 661.057 37.04C661.9 37.04 662.662 37.2267 663.345 37.6C664.028 37.9733 664.566 38.5067 664.961 39.2C665.356 39.8933 665.553 40.688 665.553 41.584C665.553 42.48 665.35 43.2747 664.945 43.968C664.54 44.6613 663.985 45.2 663.281 45.584C662.588 45.9573 661.82 46.144 660.977 46.144ZM660.977 44.56C661.446 44.56 661.884 44.448 662.289 44.224C662.705 44 663.041 43.664 663.297 43.216C663.553 42.768 663.681 42.224 663.681 41.584C663.681 40.944 663.558 40.4053 663.313 39.968C663.068 39.52 662.742 39.184 662.337 38.96C661.932 38.736 661.494 38.624 661.025 38.624C660.556 38.624 660.118 38.736 659.713 38.96C659.318 39.184 659.004 39.52 658.769 39.968C658.534 40.4053 658.417 40.944 658.417 41.584C658.417 42.5333 658.657 43.2693 659.137 43.792C659.628 44.304 660.241 44.56 660.977 44.56ZM669.18 38.464C669.447 38.016 669.799 37.6693 670.236 37.424C670.684 37.168 671.212 37.04 671.82 37.04V38.928H671.356C670.642 38.928 670.098 39.1093 669.724 39.472C669.362 39.8347 669.18 40.464 669.18 41.36V46H667.356V37.184H669.18V38.464ZM676.697 46.144C676.004 46.144 675.38 46.0213 674.825 45.776C674.281 45.52 673.849 45.1787 673.529 44.752C673.209 44.3147 673.038 43.8293 673.017 43.296H674.905C674.937 43.6693 675.113 43.984 675.433 44.24C675.764 44.4853 676.174 44.608 676.665 44.608C677.177 44.608 677.572 44.512 677.849 44.32C678.137 44.1173 678.281 43.8613 678.281 43.552C678.281 43.2213 678.121 42.976 677.801 42.816C677.492 42.656 676.996 42.48 676.313 42.288C675.652 42.1067 675.113 41.9307 674.697 41.76C674.281 41.5893 673.918 41.328 673.609 40.976C673.31 40.624 673.161 40.16 673.161 39.584C673.161 39.1147 673.3 38.688 673.577 38.304C673.854 37.9093 674.249 37.6 674.761 37.376C675.284 37.152 675.881 37.04 676.553 37.04C677.556 37.04 678.361 37.296 678.969 37.808C679.588 38.3093 679.918 38.9973 679.961 39.872H678.137C678.105 39.4773 677.945 39.1627 677.657 38.928C677.369 38.6933 676.98 38.576 676.489 38.576C676.009 38.576 675.641 38.6667 675.385 38.848C675.129 39.0293 675.001 39.2693 675.001 39.568C675.001 39.8027 675.086 40 675.257 40.16C675.428 40.32 675.636 40.448 675.881 40.544C676.126 40.6293 676.489 40.7413 676.969 40.88C677.609 41.0507 678.132 41.2267 678.537 41.408C678.953 41.5787 679.31 41.8347 679.609 42.176C679.908 42.5173 680.062 42.9707 680.073 43.536C680.073 44.0373 679.934 44.4853 679.657 44.88C679.38 45.2747 678.985 45.584 678.473 45.808C677.972 46.032 677.38 46.144 676.697 46.144Z" fill="#555555"/>
<path d="M720.207 40.288C720.804 40.3947 721.311 40.7093 721.727 41.232C722.143 41.7547 722.351 42.3467 722.351 43.008C722.351 43.5733 722.201 44.0853 721.903 44.544C721.615 44.992 721.193 45.3493 720.639 45.616C720.084 45.872 719.439 46 718.703 46H714.255V34.88H718.495C719.252 34.88 719.903 35.008 720.447 35.264C720.991 35.52 721.401 35.8667 721.679 36.304C721.956 36.7307 722.095 37.2107 722.095 37.744C722.095 38.384 721.924 38.9173 721.583 39.344C721.241 39.7707 720.783 40.0853 720.207 40.288ZM716.079 39.552H718.335C718.932 39.552 719.396 39.4187 719.727 39.152C720.068 38.8747 720.239 38.48 720.239 37.968C720.239 37.4667 720.068 37.0773 719.727 36.8C719.396 36.512 718.932 36.368 718.335 36.368H716.079V39.552ZM718.543 44.512C719.161 44.512 719.647 44.3627 719.999 44.064C720.351 43.7653 720.527 43.3493 720.527 42.816C720.527 42.272 720.34 41.84 719.967 41.52C719.593 41.2 719.097 41.04 718.479 41.04H716.079V44.512H718.543ZM726.157 34.16V46H724.333V34.16H726.157ZM732.376 46.144C731.544 46.144 730.792 45.9573 730.12 45.584C729.448 45.2 728.92 44.6667 728.536 43.984C728.152 43.2907 727.96 42.4907 727.96 41.584C727.96 40.688 728.157 39.8933 728.552 39.2C728.946 38.5067 729.485 37.9733 730.168 37.6C730.85 37.2267 731.613 37.04 732.456 37.04C733.298 37.04 734.061 37.2267 734.744 37.6C735.426 37.9733 735.965 38.5067 736.36 39.2C736.754 39.8933 736.952 40.688 736.952 41.584C736.952 42.48 736.749 43.2747 736.344 43.968C735.938 44.6613 735.384 45.2 734.68 45.584C733.986 45.9573 733.218 46.144 732.376 46.144ZM732.376 44.56C732.845 44.56 733.282 44.448 733.688 44.224C734.104 44 734.44 43.664 734.696 43.216C734.952 42.768 735.08 42.224 735.08 41.584C735.08 40.944 734.957 40.4053 734.712 39.968C734.466 39.52 734.141 39.184 733.736 38.96C733.33 38.736 732.893 38.624 732.424 38.624C731.954 38.624 731.517 38.736 731.112 38.96C730.717 39.184 730.402 39.52 730.168 39.968C729.933 40.4053 729.816 40.944 729.816 41.584C729.816 42.5333 730.056 43.2693 730.536 43.792C731.026 44.304 731.64 44.56 732.376 44.56ZM742.307 37.04C742.989 37.04 743.592 37.1787 744.115 37.456C744.648 37.7227 745.064 38.0587 745.363 38.464V37.184H747.203V46.144C747.203 46.9547 747.032 47.6747 746.691 48.304C746.349 48.944 745.853 49.4453 745.203 49.808C744.563 50.1707 743.795 50.352 742.899 50.352C741.704 50.352 740.712 50.0693 739.923 49.504C739.133 48.9493 738.685 48.192 738.579 47.232H740.387C740.525 47.6907 740.819 48.0587 741.267 48.336C741.725 48.624 742.269 48.768 742.899 48.768C743.635 48.768 744.227 48.544 744.675 48.096C745.133 47.648 745.363 46.9973 745.363 46.144V44.672C745.053 45.088 744.632 45.44 744.099 45.728C743.576 46.0053 742.979 46.144 742.307 46.144C741.539 46.144 740.835 45.952 740.195 45.568C739.565 45.1733 739.064 44.6293 738.691 43.936C738.328 43.232 738.147 42.4373 738.147 41.552C738.147 40.6667 738.328 39.8827 738.691 39.2C739.064 38.5173 739.565 37.9893 740.195 37.616C740.835 37.232 741.539 37.04 742.307 37.04ZM745.363 41.584C745.363 40.976 745.235 40.448 744.979 40C744.733 39.552 744.408 39.2107 744.003 38.976C743.597 38.7413 743.16 38.624 742.691 38.624C742.221 38.624 741.784 38.7413 741.379 38.976C740.973 39.2 740.643 39.536 740.387 39.984C740.141 40.4213 740.019 40.944 740.019 41.552C740.019 42.16 740.141 42.6933 740.387 43.152C740.643 43.6107 740.973 43.9627 741.379 44.208C741.795 44.4427 742.232 44.56 742.691 44.56C743.16 44.56 743.597 44.4427 744.003 44.208C744.408 43.9733 744.733 43.632 744.979 43.184C745.235 42.7253 745.363 42.192 745.363 41.584ZM752.798 46.144C752.105 46.144 751.481 46.0213 750.926 45.776C750.382 45.52 749.95 45.1787 749.63 44.752C749.31 44.3147 749.14 43.8293 749.118 43.296H751.006C751.038 43.6693 751.214 43.984 751.534 44.24C751.865 44.4853 752.276 44.608 752.766 44.608C753.278 44.608 753.673 44.512 753.95 44.32C754.238 44.1173 754.382 43.8613 754.382 43.552C754.382 43.2213 754.222 42.976 753.902 42.816C753.593 42.656 753.097 42.48 752.414 42.288C751.753 42.1067 751.214 41.9307 750.798 41.76C750.382 41.5893 750.02 41.328 749.71 40.976C749.412 40.624 749.262 40.16 749.262 39.584C749.262 39.1147 749.401 38.688 749.678 38.304C749.956 37.9093 750.35 37.6 750.862 37.376C751.385 37.152 751.982 37.04 752.654 37.04C753.657 37.04 754.462 37.296 755.07 37.808C755.689 38.3093 756.02 38.9973 756.062 39.872H754.238C754.206 39.4773 754.046 39.1627 753.758 38.928C753.47 38.6933 753.081 38.576 752.59 38.576C752.11 38.576 751.742 38.6667 751.486 38.848C751.23 39.0293 751.102 39.2693 751.102 39.568C751.102 39.8027 751.188 40 751.358 40.16C751.529 40.32 751.737 40.448 751.982 40.544C752.228 40.6293 752.59 40.7413 753.07 40.88C753.71 41.0507 754.233 41.2267 754.638 41.408C755.054 41.5787 755.412 41.8347 755.71 42.176C756.009 42.5173 756.164 42.9707 756.174 43.536C756.174 44.0373 756.036 44.4853 755.758 44.88C755.481 45.2747 755.086 45.584 754.574 45.808C754.073 46.032 753.481 46.144 752.798 46.144Z" fill="#555555"/>
<path d="M804.844 34.88L801.548 46H799.484L797.148 37.584L794.668 46L792.62 46.016L789.468 34.88H791.404L793.708 43.936L796.204 34.88H798.252L800.572 43.888L802.892 34.88H804.844ZM810.908 37.04C811.58 37.04 812.178 37.184 812.7 37.472C813.234 37.76 813.65 38.1867 813.948 38.752C814.258 39.3173 814.412 40 814.412 40.8V46H812.604V41.072C812.604 40.2827 812.407 39.68 812.012 39.264C811.618 38.8373 811.079 38.624 810.396 38.624C809.714 38.624 809.17 38.8373 808.764 39.264C808.37 39.68 808.172 40.2827 808.172 41.072V46H806.348V34.16H808.172V38.208C808.482 37.8347 808.871 37.5467 809.34 37.344C809.82 37.1413 810.343 37.04 810.908 37.04ZM817.667 36.016C817.336 36.016 817.059 35.904 816.835 35.68C816.611 35.456 816.499 35.1787 816.499 34.848C816.499 34.5173 816.611 34.24 816.835 34.016C817.059 33.792 817.336 33.68 817.667 33.68C817.987 33.68 818.259 33.792 818.483 34.016C818.707 34.24 818.819 34.5173 818.819 34.848C818.819 35.1787 818.707 35.456 818.483 35.68C818.259 35.904 817.987 36.016 817.667 36.016ZM818.563 37.184V46H816.739V37.184H818.563ZM823.086 38.672V43.552C823.086 43.8827 823.16 44.1227 823.31 44.272C823.47 44.4107 823.736 44.48 824.11 44.48H825.23V46H823.79C822.968 46 822.339 45.808 821.902 45.424C821.464 45.04 821.246 44.416 821.246 43.552V38.672H820.206V37.184H821.246V34.992H823.086V37.184H825.23V38.672H823.086ZM834.991 41.376C834.991 41.7067 834.97 42.0053 834.927 42.272H828.191C828.244 42.976 828.506 43.5413 828.975 43.968C829.444 44.3947 830.02 44.608 830.703 44.608C831.684 44.608 832.378 44.1973 832.783 43.376H834.751C834.484 44.1867 833.999 44.8533 833.295 45.376C832.602 45.888 831.738 46.144 830.703 46.144C829.86 46.144 829.103 45.9573 828.431 45.584C827.77 45.2 827.247 44.6667 826.863 43.984C826.49 43.2907 826.303 42.4907 826.303 41.584C826.303 40.6773 826.484 39.8827 826.847 39.2C827.22 38.5067 827.738 37.9733 828.399 37.6C829.071 37.2267 829.839 37.04 830.703 37.04C831.535 37.04 832.276 37.2213 832.927 37.584C833.578 37.9467 834.084 38.4587 834.447 39.12C834.81 39.7707 834.991 40.5227 834.991 41.376ZM833.087 40.8C833.076 40.128 832.836 39.5893 832.367 39.184C831.898 38.7787 831.316 38.576 830.623 38.576C829.994 38.576 829.455 38.7787 829.007 39.184C828.559 39.5787 828.292 40.1173 828.207 40.8H833.087ZM842.766 38.48C843.076 38.0747 843.497 37.7333 844.03 37.456C844.564 37.1787 845.166 37.04 845.838 37.04C846.606 37.04 847.305 37.232 847.934 37.616C848.574 37.9893 849.076 38.5173 849.438 39.2C849.801 39.8827 849.982 40.6667 849.982 41.552C849.982 42.4373 849.801 43.232 849.438 43.936C849.076 44.6293 848.574 45.1733 847.934 45.568C847.305 45.952 846.606 46.144 845.838 46.144C845.166 46.144 844.569 46.0107 844.046 45.744C843.524 45.4667 843.097 45.1253 842.766 44.72V50.192H840.942V37.184H842.766V38.48ZM848.126 41.552C848.126 40.944 847.998 40.4213 847.742 39.984C847.497 39.536 847.166 39.2 846.75 38.976C846.345 38.7413 845.908 38.624 845.438 38.624C844.98 38.624 844.542 38.7413 844.126 38.976C843.721 39.2107 843.39 39.552 843.134 40C842.889 40.448 842.766 40.976 842.766 41.584C842.766 42.192 842.889 42.7253 843.134 43.184C843.39 43.632 843.721 43.9733 844.126 44.208C844.542 44.4427 844.98 44.56 845.438 44.56C845.908 44.56 846.345 44.4427 846.75 44.208C847.166 43.9627 847.497 43.6107 847.742 43.152C847.998 42.6933 848.126 42.16 848.126 41.552ZM851.178 41.552C851.178 40.6667 851.359 39.8827 851.722 39.2C852.095 38.5173 852.597 37.9893 853.226 37.616C853.866 37.232 854.57 37.04 855.338 37.04C856.031 37.04 856.634 37.1787 857.146 37.456C857.669 37.7227 858.085 38.0587 858.394 38.464V37.184H860.234V46H858.394V44.688C858.085 45.104 857.663 45.4507 857.13 45.728C856.597 46.0053 855.989 46.144 855.306 46.144C854.549 46.144 853.855 45.952 853.226 45.568C852.597 45.1733 852.095 44.6293 851.722 43.936C851.359 43.232 851.178 42.4373 851.178 41.552ZM858.394 41.584C858.394 40.976 858.266 40.448 858.01 40C857.765 39.552 857.439 39.2107 857.034 38.976C856.629 38.7413 856.191 38.624 855.722 38.624C855.253 38.624 854.815 38.7413 854.41 38.976C854.005 39.2 853.674 39.536 853.418 39.984C853.173 40.4213 853.05 40.944 853.05 41.552C853.05 42.16 853.173 42.6933 853.418 43.152C853.674 43.6107 854.005 43.9627 854.41 44.208C854.826 44.4427 855.263 44.56 855.722 44.56C856.191 44.56 856.629 44.4427 857.034 44.208C857.439 43.9733 857.765 43.632 858.01 43.184C858.266 42.7253 858.394 42.192 858.394 41.584ZM864.454 38.48C864.763 38.0747 865.184 37.7333 865.718 37.456C866.251 37.1787 866.854 37.04 867.526 37.04C868.294 37.04 868.992 37.232 869.622 37.616C870.262 37.9893 870.763 38.5173 871.126 39.2C871.488 39.8827 871.67 40.6667 871.67 41.552C871.67 42.4373 871.488 43.232 871.126 43.936C870.763 44.6293 870.262 45.1733 869.622 45.568C868.992 45.952 868.294 46.144 867.526 46.144C866.854 46.144 866.256 46.0107 865.734 45.744C865.211 45.4667 864.784 45.1253 864.454 44.72V50.192H862.63V37.184H864.454V38.48ZM869.814 41.552C869.814 40.944 869.686 40.4213 869.43 39.984C869.184 39.536 868.854 39.2 868.438 38.976C868.032 38.7413 867.595 38.624 867.126 38.624C866.667 38.624 866.23 38.7413 865.814 38.976C865.408 39.2107 865.078 39.552 864.822 40C864.576 40.448 864.454 40.976 864.454 41.584C864.454 42.192 864.576 42.7253 864.822 43.184C865.078 43.632 865.408 43.9733 865.814 44.208C866.23 44.4427 866.667 44.56 867.126 44.56C867.595 44.56 868.032 44.4427 868.438 44.208C868.854 43.9627 869.184 43.6107 869.43 43.152C869.686 42.6933 869.814 42.16 869.814 41.552ZM881.553 41.376C881.553 41.7067 881.532 42.0053 881.489 42.272H874.753C874.807 42.976 875.068 43.5413 875.537 43.968C876.007 44.3947 876.583 44.608 877.265 44.608C878.247 44.608 878.94 44.1973 879.345 43.376H881.313C881.047 44.1867 880.561 44.8533 879.857 45.376C879.164 45.888 878.3 46.144 877.265 46.144C876.423 46.144 875.665 45.9573 874.993 45.584C874.332 45.2 873.809 44.6667 873.425 43.984C873.052 43.2907 872.865 42.4907 872.865 41.584C872.865 40.6773 873.047 39.8827 873.409 39.2C873.783 38.5067 874.3 37.9733 874.961 37.6C875.633 37.2267 876.401 37.04 877.265 37.04C878.097 37.04 878.839 37.2213 879.489 37.584C880.14 37.9467 880.647 38.4587 881.009 39.12C881.372 39.7707 881.553 40.5227 881.553 41.376ZM879.649 40.8C879.639 40.128 879.399 39.5893 878.929 39.184C878.46 38.7787 877.879 38.576 877.185 38.576C876.556 38.576 876.017 38.7787 875.569 39.184C875.121 39.5787 874.855 40.1173 874.769 40.8H879.649ZM885.172 38.464C885.439 38.016 885.791 37.6693 886.228 37.424C886.676 37.168 887.204 37.04 887.812 37.04V38.928H887.348C886.634 38.928 886.09 39.1093 885.716 39.472C885.354 39.8347 885.172 40.464 885.172 41.36V46H883.348V37.184H885.172V38.464ZM892.689 46.144C891.996 46.144 891.372 46.0213 890.817 45.776C890.273 45.52 889.841 45.1787 889.521 44.752C889.201 44.3147 889.03 43.8293 889.009 43.296H890.897C890.929 43.6693 891.105 43.984 891.425 44.24C891.756 44.4853 892.166 44.608 892.657 44.608C893.169 44.608 893.564 44.512 893.841 44.32C894.129 44.1173 894.273 43.8613 894.273 43.552C894.273 43.2213 894.113 42.976 893.793 42.816C893.484 42.656 892.988 42.48 892.305 42.288C891.644 42.1067 891.105 41.9307 890.689 41.76C890.273 41.5893 889.91 41.328 889.601 40.976C889.302 40.624 889.153 40.16 889.153 39.584C889.153 39.1147 889.292 38.688 889.569 38.304C889.846 37.9093 890.241 37.6 890.753 37.376C891.276 37.152 891.873 37.04 892.545 37.04C893.548 37.04 894.353 37.296 894.961 37.808C895.58 38.3093 895.91 38.9973 895.953 39.872H894.129C894.097 39.4773 893.937 39.1627 893.649 38.928C893.361 38.6933 892.972 38.576 892.481 38.576C892.001 38.576 891.633 38.6667 891.377 38.848C891.121 39.0293 890.993 39.2693 890.993 39.568C890.993 39.8027 891.078 40 891.249 40.16C891.42 40.32 891.628 40.448 891.873 40.544C892.118 40.6293 892.481 40.7413 892.961 40.88C893.601 41.0507 894.124 41.2267 894.529 41.408C894.945 41.5787 895.302 41.8347 895.601 42.176C895.9 42.5173 896.054 42.9707 896.065 43.536C896.065 44.0373 895.926 44.4853 895.649 44.88C895.372 45.2747 894.977 45.584 894.465 45.808C893.964 46.032 893.372 46.144 892.689 46.144Z" fill="#555555"/>
<mask id="path-8-inside-1_1_2170" fill="white">
<path d="M0 0H1366V80H0V0Z"/>
</mask>
<path d="M1366 79H0V81H1366V79Z" fill="#EBEBEB" mask="url(#path-8-inside-1_1_2170)"/>
<rect x="1165" y="20" width="121" height="40" rx="10" fill="#5978FF"/>
<path d="M1193.09 38.07C1192.84 37.5847 1192.49 37.2207 1192.04 36.978C1191.59 36.726 1191.08 36.6 1190.49 36.6C1189.84 36.6 1189.27 36.7447 1188.77 37.034C1188.26 37.3233 1187.87 37.734 1187.58 38.266C1187.3 38.798 1187.16 39.414 1187.16 40.114C1187.16 40.814 1187.3 41.4347 1187.58 41.976C1187.87 42.508 1188.26 42.9187 1188.77 43.208C1189.27 43.4973 1189.84 43.642 1190.49 43.642C1191.36 43.642 1192.06 43.3993 1192.6 42.914C1193.14 42.4287 1193.47 41.7707 1193.6 40.94H1189.94V39.666H1195.3V40.912C1195.2 41.668 1194.93 42.3633 1194.49 42.998C1194.06 43.6327 1193.5 44.1413 1192.8 44.524C1192.11 44.8973 1191.34 45.084 1190.49 45.084C1189.57 45.084 1188.74 44.874 1187.98 44.454C1187.23 44.0247 1186.62 43.432 1186.18 42.676C1185.74 41.92 1185.52 41.066 1185.52 40.114C1185.52 39.162 1185.74 38.308 1186.18 37.552C1186.62 36.796 1187.23 36.208 1187.98 35.788C1188.75 35.3587 1189.58 35.144 1190.49 35.144C1191.52 35.144 1192.44 35.4007 1193.25 35.914C1194.06 36.418 1194.65 37.1367 1195.01 38.07H1193.09ZM1203.95 40.954C1203.95 41.2433 1203.93 41.5047 1203.89 41.738H1198C1198.04 42.354 1198.27 42.8487 1198.68 43.222C1199.09 43.5953 1199.6 43.782 1200.2 43.782C1201.05 43.782 1201.66 43.4227 1202.02 42.704H1203.74C1203.5 43.4133 1203.08 43.9967 1202.46 44.454C1201.86 44.902 1201.1 45.126 1200.2 45.126C1199.46 45.126 1198.8 44.9627 1198.21 44.636C1197.63 44.3 1197.17 43.8333 1196.84 43.236C1196.51 42.6293 1196.35 41.9293 1196.35 41.136C1196.35 40.3427 1196.5 39.6473 1196.82 39.05C1197.15 38.4433 1197.6 37.9767 1198.18 37.65C1198.77 37.3233 1199.44 37.16 1200.2 37.16C1200.92 37.16 1201.57 37.3187 1202.14 37.636C1202.71 37.9533 1203.15 38.4013 1203.47 38.98C1203.79 39.5493 1203.95 40.2073 1203.95 40.954ZM1202.28 40.45C1202.27 39.862 1202.06 39.3907 1201.65 39.036C1201.24 38.6813 1200.73 38.504 1200.13 38.504C1199.58 38.504 1199.1 38.6813 1198.71 39.036C1198.32 39.3813 1198.09 39.8527 1198.01 40.45H1202.28ZM1207.38 38.588V42.858C1207.38 43.1473 1207.45 43.3573 1207.58 43.488C1207.72 43.6093 1207.95 43.67 1208.28 43.67H1209.26V45H1208C1207.28 45 1206.73 44.832 1206.34 44.496C1205.96 44.16 1205.77 43.614 1205.77 42.858V38.588H1204.86V37.286H1205.77V35.368H1207.38V37.286H1209.26V38.588H1207.38ZM1217.57 45.098C1216.92 45.098 1216.33 44.986 1215.81 44.762C1215.28 44.5287 1214.87 44.202 1214.57 43.782C1214.28 43.362 1214.13 42.872 1214.13 42.312H1215.83C1215.87 42.732 1216.04 43.0773 1216.32 43.348C1216.62 43.6187 1217.04 43.754 1217.57 43.754C1218.12 43.754 1218.55 43.6233 1218.86 43.362C1219.17 43.0913 1219.32 42.746 1219.32 42.326C1219.32 41.9993 1219.22 41.7333 1219.03 41.528C1218.84 41.3227 1218.6 41.164 1218.31 41.052C1218.03 40.94 1217.64 40.8187 1217.14 40.688C1216.5 40.52 1215.98 40.352 1215.58 40.184C1215.19 40.0067 1214.85 39.736 1214.57 39.372C1214.29 39.008 1214.15 38.5227 1214.15 37.916C1214.15 37.356 1214.29 36.866 1214.57 36.446C1214.85 36.026 1215.25 35.704 1215.75 35.48C1216.25 35.256 1216.84 35.144 1217.5 35.144C1218.44 35.144 1219.21 35.382 1219.81 35.858C1220.42 36.3247 1220.75 36.9687 1220.82 37.79H1219.05C1219.03 37.4353 1218.86 37.132 1218.55 36.88C1218.24 36.628 1217.84 36.502 1217.33 36.502C1216.88 36.502 1216.5 36.6187 1216.21 36.852C1215.92 37.0853 1215.78 37.4213 1215.78 37.86C1215.78 38.1587 1215.87 38.406 1216.04 38.602C1216.23 38.7887 1216.46 38.938 1216.74 39.05C1217.02 39.162 1217.41 39.2833 1217.89 39.414C1218.54 39.5913 1219.06 39.7687 1219.46 39.946C1219.87 40.1233 1220.22 40.3987 1220.5 40.772C1220.79 41.136 1220.93 41.626 1220.93 42.242C1220.93 42.7367 1220.8 43.2033 1220.52 43.642C1220.26 44.0807 1219.88 44.4353 1219.36 44.706C1218.86 44.9673 1218.26 45.098 1217.57 45.098ZM1224.68 38.588V42.858C1224.68 43.1473 1224.74 43.3573 1224.87 43.488C1225.01 43.6093 1225.25 43.67 1225.57 43.67H1226.55V45H1225.29C1224.57 45 1224.02 44.832 1223.64 44.496C1223.26 44.16 1223.07 43.614 1223.07 42.858V38.588H1222.16V37.286H1223.07V35.368H1224.68V37.286H1226.55V38.588H1224.68ZM1227.49 41.108C1227.49 40.3333 1227.65 39.6473 1227.97 39.05C1228.29 38.4527 1228.73 37.9907 1229.28 37.664C1229.84 37.328 1230.46 37.16 1231.13 37.16C1231.74 37.16 1232.26 37.2813 1232.71 37.524C1233.17 37.7573 1233.53 38.0513 1233.8 38.406V37.286H1235.41V45H1233.8V43.852C1233.53 44.216 1233.17 44.5193 1232.7 44.762C1232.23 45.0047 1231.7 45.126 1231.1 45.126C1230.44 45.126 1229.83 44.958 1229.28 44.622C1228.73 44.2767 1228.29 43.8007 1227.97 43.194C1227.65 42.578 1227.49 41.8827 1227.49 41.108ZM1233.8 41.136C1233.8 40.604 1233.69 40.142 1233.47 39.75C1233.25 39.358 1232.97 39.0593 1232.61 38.854C1232.26 38.6487 1231.88 38.546 1231.47 38.546C1231.06 38.546 1230.67 38.6487 1230.32 38.854C1229.96 39.05 1229.67 39.344 1229.45 39.736C1229.24 40.1187 1229.13 40.576 1229.13 41.108C1229.13 41.64 1229.24 42.1067 1229.45 42.508C1229.67 42.9093 1229.96 43.2173 1230.32 43.432C1230.68 43.6373 1231.07 43.74 1231.47 43.74C1231.88 43.74 1232.26 43.6373 1232.61 43.432C1232.97 43.2267 1233.25 42.928 1233.47 42.536C1233.69 42.1347 1233.8 41.668 1233.8 41.136ZM1239.11 38.406C1239.34 38.014 1239.65 37.7107 1240.03 37.496C1240.42 37.272 1240.88 37.16 1241.42 37.16V38.812H1241.01C1240.39 38.812 1239.91 38.9707 1239.58 39.288C1239.27 39.6053 1239.11 40.156 1239.11 40.94V45H1237.51V37.286H1239.11V38.406ZM1244.75 38.588V42.858C1244.75 43.1473 1244.81 43.3573 1244.94 43.488C1245.08 43.6093 1245.32 43.67 1245.64 43.67H1246.62V45H1245.36C1244.64 45 1244.09 44.832 1243.71 44.496C1243.33 44.16 1243.14 43.614 1243.14 42.858V38.588H1242.23V37.286H1243.14V35.368H1244.75V37.286H1246.62V38.588H1244.75ZM1255.16 40.954C1255.16 41.2433 1255.14 41.5047 1255.11 41.738H1249.21C1249.26 42.354 1249.49 42.8487 1249.9 43.222C1250.31 43.5953 1250.81 43.782 1251.41 43.782C1252.27 43.782 1252.88 43.4227 1253.23 42.704H1254.95C1254.72 43.4133 1254.29 43.9967 1253.68 44.454C1253.07 44.902 1252.32 45.126 1251.41 45.126C1250.67 45.126 1250.01 44.9627 1249.42 44.636C1248.84 44.3 1248.39 43.8333 1248.05 43.236C1247.72 42.6293 1247.56 41.9293 1247.56 41.136C1247.56 40.3427 1247.72 39.6473 1248.04 39.05C1248.36 38.4433 1248.82 37.9767 1249.39 37.65C1249.98 37.3233 1250.65 37.16 1251.41 37.16C1252.14 37.16 1252.79 37.3187 1253.36 37.636C1253.93 37.9533 1254.37 38.4013 1254.69 38.98C1255 39.5493 1255.16 40.2073 1255.16 40.954ZM1253.5 40.45C1253.49 39.862 1253.28 39.3907 1252.87 39.036C1252.46 38.6813 1251.95 38.504 1251.34 38.504C1250.79 38.504 1250.32 38.6813 1249.93 39.036C1249.53 39.3813 1249.3 39.8527 1249.23 40.45H1253.5ZM1256.2 41.108C1256.2 40.3333 1256.36 39.6473 1256.68 39.05C1257 38.4527 1257.44 37.9907 1257.99 37.664C1258.55 37.328 1259.17 37.16 1259.86 37.16C1260.36 37.16 1260.85 37.272 1261.34 37.496C1261.83 37.7107 1262.23 38 1262.52 38.364V34.64H1264.13V45H1262.52V43.838C1262.25 44.2113 1261.89 44.5193 1261.42 44.762C1260.97 45.0047 1260.44 45.126 1259.84 45.126C1259.17 45.126 1258.55 44.958 1257.99 44.622C1257.44 44.2767 1257 43.8007 1256.68 43.194C1256.36 42.578 1256.2 41.8827 1256.2 41.108ZM1262.52 41.136C1262.52 40.604 1262.4 40.142 1262.18 39.75C1261.96 39.358 1261.68 39.0593 1261.33 38.854C1260.97 38.6487 1260.59 38.546 1260.18 38.546C1259.77 38.546 1259.38 38.6487 1259.03 38.854C1258.67 39.05 1258.39 39.344 1258.16 39.736C1257.95 40.1187 1257.84 40.576 1257.84 41.108C1257.84 41.64 1257.95 42.1067 1258.16 42.508C1258.39 42.9093 1258.67 43.2173 1259.03 43.432C1259.39 43.6373 1259.78 43.74 1260.18 43.74C1260.59 43.74 1260.97 43.6373 1261.33 43.432C1261.68 43.2267 1261.96 42.928 1262.18 42.536C1262.4 42.1347 1262.52 41.668 1262.52 41.136Z" fill="white"/>
<rect x="1075.5" y="20.5" width="77" height="39" rx="9.5" fill="white"/>
<rect x="1075.5" y="20.5" width="77" height="39" rx="9.5" stroke="#5978FF"/>
<path d="M1097.65 43.712H1100.94V45H1096.05V35.27H1097.65V43.712ZM1105.62 45.126C1104.89 45.126 1104.23 44.9627 1103.64 44.636C1103.05 44.3 1102.59 43.8333 1102.26 43.236C1101.92 42.6293 1101.75 41.9293 1101.75 41.136C1101.75 40.352 1101.93 39.6567 1102.27 39.05C1102.62 38.4433 1103.09 37.9767 1103.68 37.65C1104.28 37.3233 1104.95 37.16 1105.69 37.16C1106.42 37.16 1107.09 37.3233 1107.69 37.65C1108.29 37.9767 1108.76 38.4433 1109.1 39.05C1109.45 39.6567 1109.62 40.352 1109.62 41.136C1109.62 41.92 1109.44 42.6153 1109.09 43.222C1108.73 43.8287 1108.25 44.3 1107.63 44.636C1107.03 44.9627 1106.35 45.126 1105.62 45.126ZM1105.62 43.74C1106.03 43.74 1106.41 43.642 1106.76 43.446C1107.13 43.25 1107.42 42.956 1107.65 42.564C1107.87 42.172 1107.98 41.696 1107.98 41.136C1107.98 40.576 1107.88 40.1047 1107.66 39.722C1107.45 39.33 1107.16 39.036 1106.81 38.84C1106.45 38.644 1106.07 38.546 1105.66 38.546C1105.25 38.546 1104.87 38.644 1104.51 38.84C1104.17 39.036 1103.89 39.33 1103.68 39.722C1103.48 40.1047 1103.38 40.576 1103.38 41.136C1103.38 41.9667 1103.59 42.6107 1104.01 43.068C1104.44 43.516 1104.97 43.74 1105.62 43.74ZM1114.31 37.16C1114.9 37.16 1115.43 37.2813 1115.89 37.524C1116.36 37.7573 1116.72 38.0513 1116.98 38.406V37.286H1118.59V45.126C1118.59 45.8353 1118.44 46.4653 1118.14 47.016C1117.84 47.576 1117.41 48.0147 1116.84 48.332C1116.28 48.6493 1115.61 48.808 1114.82 48.808C1113.78 48.808 1112.91 48.5607 1112.22 48.066C1111.53 47.5807 1111.14 46.918 1111.04 46.078H1112.63C1112.75 46.4793 1113 46.8013 1113.4 47.044C1113.8 47.296 1114.27 47.422 1114.82 47.422C1115.47 47.422 1115.99 47.226 1116.38 46.834C1116.78 46.442 1116.98 45.8727 1116.98 45.126V43.838C1116.71 44.202 1116.34 44.51 1115.87 44.762C1115.42 45.0047 1114.89 45.126 1114.31 45.126C1113.63 45.126 1113.02 44.958 1112.46 44.622C1111.91 44.2767 1111.47 43.8007 1111.14 43.194C1110.83 42.578 1110.67 41.8827 1110.67 41.108C1110.67 40.3333 1110.83 39.6473 1111.14 39.05C1111.47 38.4527 1111.91 37.9907 1112.46 37.664C1113.02 37.328 1113.63 37.16 1114.31 37.16ZM1116.98 41.136C1116.98 40.604 1116.87 40.142 1116.64 39.75C1116.43 39.358 1116.15 39.0593 1115.79 38.854C1115.44 38.6487 1115.05 38.546 1114.64 38.546C1114.23 38.546 1113.85 38.6487 1113.49 38.854C1113.14 39.05 1112.85 39.344 1112.63 39.736C1112.41 40.1187 1112.3 40.576 1112.3 41.108C1112.3 41.64 1112.41 42.1067 1112.63 42.508C1112.85 42.9093 1113.14 43.2173 1113.49 43.432C1113.86 43.6373 1114.24 43.74 1114.64 43.74C1115.05 43.74 1115.44 43.6373 1115.79 43.432C1116.15 43.2267 1116.43 42.928 1116.64 42.536C1116.87 42.1347 1116.98 41.668 1116.98 41.136ZM1121.5 36.264C1121.21 36.264 1120.97 36.166 1120.77 35.97C1120.57 35.774 1120.48 35.5313 1120.48 35.242C1120.48 34.9527 1120.57 34.71 1120.77 34.514C1120.97 34.318 1121.21 34.22 1121.5 34.22C1121.78 34.22 1122.02 34.318 1122.21 34.514C1122.41 34.71 1122.51 34.9527 1122.51 35.242C1122.51 35.5313 1122.41 35.774 1122.21 35.97C1122.02 36.166 1121.78 36.264 1121.5 36.264ZM1122.28 37.286V45H1120.69V37.286H1122.28ZM1128.27 37.16C1128.88 37.16 1129.42 37.286 1129.89 37.538C1130.38 37.79 1130.76 38.1633 1131.03 38.658C1131.3 39.1527 1131.43 39.75 1131.43 40.45V45H1129.85V40.688C1129.85 39.9973 1129.68 39.47 1129.33 39.106C1128.99 38.7327 1128.52 38.546 1127.92 38.546C1127.32 38.546 1126.85 38.7327 1126.49 39.106C1126.15 39.47 1125.97 39.9973 1125.97 40.688V45H1124.38V37.286H1125.97V38.168C1126.24 37.8507 1126.57 37.6033 1126.97 37.426C1127.38 37.2487 1127.81 37.16 1128.27 37.16Z" fill="#5978FF"/>
<defs>
<clipPath id="clip0_1_2170">
<rect width="40.8889" height="32" fill="white" transform="translate(80 24)"/>
</clipPath>
</defs>
</svg>
