<svg width="41" height="45" viewBox="0 0 41 45" fill="none" xmlns="http://www.w3.org/2000/svg">
<path d="M37.3309 22.5769C35.1256 18.9412 32.8818 15.3963 30.181 12.1036C28.9209 10.5739 27.519 9.16638 26.0231 7.86934C24.7603 6.77577 22.9012 4.93668 21.1385 5.88597C19.9231 6.53935 20.7876 8.07107 21.4254 8.75759C22.9882 10.4454 24.8924 11.8378 26.4893 13.5125C29.6162 16.7854 32.2024 20.5647 35.0212 24.1012C35.9926 25.3231 38.1605 23.9425 37.3309 22.5769Z" fill="#F8971F"/>
<path d="M11.8416 19.3319C13.8963 21.0348 16.4066 22.026 18.7666 23.2244C21.4556 24.5842 24.1278 26.0564 27.0802 26.751C28.827 27.1626 29.8012 24.7349 28.0434 24.0678C25.1091 22.9545 22.3653 21.5536 19.5993 20.076C17.2251 18.8086 14.9051 17.623 12.1457 17.8972C11.3928 17.971 11.3653 18.9349 11.8416 19.3319Z" fill="#F8971F"/>
<path d="M1.61202 37.807C0.940081 38.0559 1.16042 39.2017 1.87019 39.2006C9.16098 39.1846 16.8929 38.7211 23.8818 36.5227C25.6424 35.9689 25.2208 33.1696 23.3461 33.6313C16.1799 35.396 8.58464 35.23 1.61202 37.807Z" fill="#F8971F"/>
</svg>
