<svg width="552" height="455" viewBox="0 0 552 455" fill="none" xmlns="http://www.w3.org/2000/svg">
<g clip-path="url(#clip0_1_2503)">
<path d="M478.204 110.588L478.195 110.816C478.037 114.777 476.643 118.589 474.207 121.717C471.774 124.844 468.422 127.13 464.624 128.255C450.862 131.897 438.796 117.45 443.795 104.223C445.104 100.863 447.435 97.9983 450.459 96.0325C453.483 94.0663 457.048 93.0987 460.651 93.2661L460.652 93.2661C469.612 93.6657 478.257 100.784 478.204 110.588Z" stroke="black"/>
<path d="M372.945 18.0207C371.976 18.1842 371.073 18.6165 370.338 19.2683C369.603 19.9201 369.065 20.7653 368.787 21.7076C367.597 26.3147 373.564 30.2077 377.712 27.1838C382.561 23.6287 378.604 17.0666 372.945 18.0207ZM376.909 25.3584C374.443 27.6471 370.108 25.4264 370.599 22.445C370.731 21.8342 371.036 21.2742 371.477 20.8324C371.919 20.3907 372.479 20.0858 373.09 19.9545C376.305 19.1257 379.726 22.7383 376.904 25.3584H376.909Z" fill="#1D1D1B"/>
<path d="M374.093 21.792C373.866 21.792 373.644 21.8593 373.455 21.9854C373.267 22.1115 373.12 22.2907 373.033 22.5004C372.946 22.7101 372.923 22.9408 372.967 23.1634C373.012 23.386 373.121 23.5904 373.281 23.7509C373.442 23.9114 373.646 24.0207 373.869 24.065C374.092 24.1092 374.322 24.0865 374.532 23.9997C374.742 23.9128 374.921 23.7657 375.047 23.577C375.173 23.3883 375.24 23.1665 375.24 22.9395C375.241 22.7887 375.211 22.6394 375.154 22.5C375.096 22.3607 375.011 22.2341 374.905 22.1275C374.798 22.0209 374.672 21.9363 374.532 21.8788C374.393 21.8212 374.244 21.7917 374.093 21.792Z" fill="#1D1D1B"/>
<path d="M356.604 113.384C355.357 113.219 354.09 113.44 352.972 114.016C351.854 114.592 350.939 115.497 350.35 116.608C349.761 117.719 349.526 118.984 349.677 120.233C349.828 121.482 350.358 122.654 351.194 123.593C352.031 124.532 353.135 125.193 354.358 125.486C355.581 125.78 356.865 125.692 358.036 125.234C359.208 124.777 360.212 123.972 360.913 122.928C361.613 121.883 361.978 120.649 361.957 119.392C362.026 117.89 361.505 116.42 360.504 115.298C359.504 114.175 358.104 113.488 356.604 113.384Z" fill="#F8971F"/>
<path d="M471.268 119.851C471.585 121.262 470.871 121.317 469.177 122.293C465.314 124.511 465.246 124.702 464.791 124.396C464.337 124.09 463.871 123.78 463.412 123.476V125.75C463.412 125.942 463.336 126.127 463.2 126.262C463.064 126.398 462.88 126.475 462.688 126.475C462.495 126.475 462.311 126.398 462.175 126.262C462.039 126.127 461.963 125.942 461.963 125.75V122.138C461.964 122.011 461.998 121.886 462.061 121.776C462.125 121.666 462.215 121.575 462.325 121.51C462.434 121.446 462.559 121.411 462.686 121.41C462.812 121.408 462.938 121.439 463.049 121.5C463.763 121.972 464.462 122.444 465.174 122.915C466.719 122.021 468.255 121.139 469.802 120.244C469.662 119.565 469.325 118.943 468.833 118.455C468.519 118.127 468.18 117.824 467.82 117.547C467.658 117.441 467.545 117.275 467.506 117.085C467.466 116.896 467.502 116.699 467.607 116.536C466.66 117.56 465.507 118.373 464.223 118.919C462.939 119.465 461.554 119.733 460.159 119.704C458.765 119.676 457.392 119.352 456.131 118.754C454.871 118.157 453.751 117.298 452.847 116.236C452.757 116.304 452.67 116.375 452.585 116.449C452.605 116.582 452.585 116.717 452.53 116.839C452.474 116.962 452.384 117.065 452.271 117.137C451.299 117.754 450.593 118.711 450.29 119.821L454.921 122.492L457.046 121.077C457.157 121.013 457.283 120.979 457.411 120.98C457.539 120.98 457.665 121.014 457.776 121.079C457.887 121.144 457.978 121.237 458.042 121.348C458.105 121.46 458.137 121.586 458.136 121.715V125.327C458.126 125.513 458.045 125.688 457.91 125.815C457.775 125.943 457.596 126.015 457.41 126.015C457.224 126.015 457.045 125.943 456.91 125.815C456.775 125.688 456.694 125.513 456.684 125.327V123.053C455.365 123.923 455.114 124.277 454.559 123.974C449.26 120.945 449.047 120.954 448.854 120.491C448.221 121.417 447.647 122.382 447.137 123.381C448.781 125.238 450.801 126.726 453.063 127.745C455.325 128.765 457.777 129.293 460.258 129.295C462.739 129.297 465.192 128.773 467.455 127.758C469.719 126.742 471.741 125.258 473.389 123.404C472.861 122.122 472.146 120.925 471.268 119.851Z" fill="#5978FF"/>
<path d="M373.982 226.79L439.373 227.63C440.011 227.635 440.642 227.5 441.221 227.232C441.8 226.965 442.313 226.572 442.722 226.083L461.709 203.19C462.208 202.58 462.53 201.844 462.638 201.063C462.746 200.283 462.636 199.487 462.321 198.765C462.006 198.042 461.498 197.421 460.852 196.969C460.206 196.517 459.448 196.252 458.662 196.203L390.84 191.953L373.982 226.79ZM299.672 188.448C306.781 196.441 313.017 205.169 318.274 214.484C319.346 216.1 320.188 217.857 320.775 219.705C320.919 219.637 321.08 219.616 321.237 219.646C332.478 210.508 348.197 195.958 363.008 195.727C362.915 195.589 362.866 195.426 362.868 195.259C362.871 195.093 362.924 194.931 363.021 194.796C364.058 193.2 365.292 191.743 366.695 190.457L303.505 186.498C302.752 186.46 302.001 186.62 301.328 186.962C300.656 187.304 300.085 187.817 299.672 188.448Z" fill="#646F79"/>
<path d="M382.032 120.052C382.106 118.548 381.586 117.075 380.585 115.952C379.583 114.828 378.179 114.143 376.677 114.044C375.43 113.88 374.163 114.1 373.045 114.677C371.928 115.254 371.013 116.158 370.424 117.27C369.836 118.381 369.601 119.646 369.753 120.895C369.904 122.143 370.433 123.316 371.27 124.254C372.107 125.193 373.211 125.854 374.434 126.147C375.657 126.44 376.941 126.352 378.112 125.894C379.284 125.437 380.287 124.632 380.988 123.587C381.689 122.543 382.053 121.309 382.032 120.052ZM256.444 158.451C248.05 149.39 225.58 143.652 204.047 151.332C204.781 153.565 205.576 155.778 206.429 157.968C218.665 150.157 242.539 153.595 256.444 158.451Z" fill="#F8971F"/>
<path d="M369.466 198.669C354.706 193.186 335.094 210.749 323.778 220.076C324.951 220.478 326.025 221.126 326.928 221.976C327.83 222.826 328.541 223.859 329.012 225.006C329.129 225.226 329.156 225.484 329.087 225.723C329.018 225.963 328.859 226.167 328.644 226.292C328.428 226.417 328.172 226.454 327.93 226.394C327.687 226.335 327.477 226.184 327.344 225.973C326.991 225.508 326.868 225.42 326.896 224.983C326.804 224.788 326.695 224.603 326.571 224.428C326.078 223.708 325.447 223.093 324.714 222.619C323.982 222.144 323.162 221.82 322.304 221.665C324.641 223.876 325.26 227.571 325.434 230.769C325.506 232.012 323.572 231.999 323.5 230.769C323.638 227.777 322.587 224.852 320.576 222.632C320.416 222.749 320.225 222.814 320.028 222.818C319.83 222.822 319.636 222.766 319.471 222.657C319.307 222.548 319.18 222.39 319.107 222.207C319.034 222.023 319.02 221.822 319.065 221.629C319.065 221.629 319.101 221.306 319.101 221.075C319.023 220.962 318.973 220.831 318.956 220.695C318.939 220.558 318.955 220.419 319.003 220.291C318.632 219.06 318.082 217.891 317.371 216.82C303.287 191.497 282.309 169.135 254.025 159.711C241.642 155.692 221.605 152.63 209.51 158.453C205.137 160.517 201.596 164.004 199.465 168.344C215.66 171.079 230.956 177.683 244.052 187.597C272.153 208.533 274.391 244.937 280.7 276.387C284.313 294.407 287.241 328.818 301.706 342.817C305.533 341.978 308.95 339.838 311.375 336.761C310.686 336.604 310.178 335.758 310.869 335.19C313.865 332.644 316.049 329.275 317.149 325.5C318.249 321.725 318.217 317.71 317.057 313.953C316.67 312.769 318.544 312.253 318.918 313.432C319.539 315.397 319.865 317.442 319.885 319.501C320.616 316.06 320.734 312.518 320.236 309.036C315.085 297.59 322.89 288.714 334.244 283.506C333.254 279.172 330.949 275.25 327.644 272.277C316.57 275.768 304.625 275.281 293.873 270.9C291.808 270.141 289.811 269.207 287.904 268.108C287.688 267.976 287.532 267.764 287.47 267.518C287.408 267.273 287.445 267.012 287.574 266.794C287.702 266.575 287.91 266.416 288.155 266.349C288.4 266.283 288.66 266.316 288.881 266.44C289.808 266.975 290.76 267.462 291.735 267.902C302.447 273.003 314.653 274.018 326.061 270.756C343.947 265.09 375.038 244.779 380.102 225.792C383.581 211.723 377.699 201.724 369.466 198.669Z" fill="#5978FF"/>
<path d="M470.168 105.371C470.165 105.223 470.128 105.078 470.06 104.946C469.148 103.189 467.778 101.711 466.094 100.67C464.41 99.6285 462.475 99.0631 460.495 99.0335C458.516 99.0038 456.565 99.511 454.85 100.501C453.136 101.491 451.722 102.928 450.758 104.657C448.739 105.698 448.119 111.844 449.959 112.163C451.436 112.443 452.896 108.372 452.273 105.824C453.412 103.866 455.174 102.347 457.278 101.508C459.353 100.797 461.614 100.85 463.653 101.659C465.692 102.468 467.375 103.979 468.398 105.919C468.43 105.97 468.467 106.018 468.506 106.064C468.191 107.166 468.152 108.329 468.394 109.449C468.636 110.57 469.15 111.614 469.892 112.488C472.155 114.175 472.45 107.265 470.168 105.371Z" fill="#5978FF"/>
<path d="M400.785 120.052C400.859 118.548 400.339 117.075 399.338 115.952C398.336 114.828 396.932 114.143 395.43 114.044C394.183 113.88 392.916 114.1 391.798 114.677C390.681 115.254 389.766 116.158 389.177 117.27C388.589 118.381 388.354 119.646 388.506 120.895C388.657 122.143 389.186 123.316 390.023 124.254C390.86 125.193 391.964 125.854 393.187 126.147C394.41 126.44 395.694 126.352 396.865 125.894C398.037 125.437 399.04 124.632 399.741 123.587C400.442 122.543 400.806 121.309 400.785 120.052Z" fill="#FF2E00"/>
<path d="M208.033 138.041C207.671 139.326 207.608 137.358 208.201 148.028C210.038 147.534 211.898 147.123 213.772 146.796C210.836 144.694 208.789 141.572 208.033 138.041ZM263.196 73.3401C262.033 71.9408 260.794 70.6057 259.486 69.3408C255.763 75.7031 248.684 77.673 248.051 84.3158C248.119 84.5283 249.483 88.9335 249.732 90.0938C262.389 94.7561 264.841 113.588 254.603 121.41C251.776 123.526 248.357 124.701 244.827 124.77C246.908 126.31 246.87 128.884 246.145 131.381C245.663 133.339 244.778 135.175 243.546 136.771C242.314 138.368 240.762 139.69 238.99 140.652C237.19 141.562 235.137 141.841 233.16 141.444C231.183 141.047 229.396 139.997 228.087 138.463C228.424 139.772 228.4 141.148 228.017 142.444C227.634 143.741 226.907 144.909 225.913 145.825C235.741 145.798 245.382 148.516 253.75 153.67C253.423 150.442 253.113 147.227 252.784 143.999C252.977 145.971 269.318 136.349 270.634 135.019C275.126 130.297 278.062 124.311 279.045 117.868C281.714 101.788 273.248 85.3975 263.196 73.3401ZM382.641 222.939C387.227 219.482 390.453 214.524 391.756 208.931C391.803 208.77 391.891 208.623 392.012 208.506C392.132 208.388 392.281 208.304 392.444 208.261C392.607 208.219 392.778 208.219 392.941 208.262C393.103 208.304 393.252 208.389 393.373 208.506C394.275 209.504 395.49 210.165 396.817 210.378C397.308 210.352 397.778 210.175 398.164 209.87C398.549 209.566 398.831 209.15 398.97 208.678C399.924 206.213 398.016 203.818 396.577 202.006C394.721 200.8 392.502 200.283 390.304 200.544C390.061 200.602 389.805 200.563 389.589 200.436C389.374 200.309 389.216 200.104 389.149 199.863C389.082 199.622 389.111 199.364 389.229 199.144C389.348 198.924 389.548 198.758 389.786 198.682C392.578 198.249 395.43 198.897 397.761 200.495C399.38 201.132 401.716 201.849 402.51 199.758C402.703 198.827 402.644 197.862 402.341 196.962C402.037 196.061 401.499 195.258 400.783 194.634C400.022 193.741 399.194 192.909 398.305 192.144C396.826 191.506 395.234 191.176 393.624 191.172C392.014 191.168 390.42 191.49 388.938 192.12C388.716 192.24 388.457 192.272 388.213 192.209C387.969 192.146 387.758 191.993 387.622 191.78C387.492 191.559 387.453 191.296 387.516 191.047C387.579 190.798 387.738 190.584 387.958 190.452C389.958 189.574 392.137 189.176 394.318 189.292C389.495 186.353 383.725 185.386 378.207 186.593C372.689 187.799 367.848 191.085 364.691 195.769C376.313 196.494 385.026 207.386 382.641 222.939Z" fill="#FFCEB6"/>
<path d="M381.658 356.546C377.344 356.546 375.978 361.997 375.24 365.32C374.624 368.153 374.116 371.006 373.717 373.878C379.457 370.725 384.905 367.069 389.999 362.953C388.15 360.129 385.039 356.546 381.658 356.546ZM292.73 373.11C292.041 371.996 291.086 371.07 289.951 370.416C289.329 370.125 288.649 369.978 287.962 369.986C287.276 369.995 286.6 370.158 285.985 370.465C283.518 371.843 281.531 373.943 280.292 376.483C277.24 382.643 275.492 389.366 275.156 396.233C283.432 396.851 291.742 396.857 300.019 396.252C299.616 393.55 299.075 390.872 298.398 388.226C297.086 383.051 295.845 377.55 292.73 373.11Z" fill="#5978FF"/>
<path d="M404.37 332.422C401.59 328.2 396.55 327.82 391.546 328.676C370.888 332.195 352.675 345.513 331.571 349.163C322.421 350.746 312.221 350.929 304.726 345.442C287.551 332.932 284.704 296.384 280.698 276.413C274.4 244.963 272.151 208.557 244.05 187.624C225.749 173.998 201.42 164.845 178.48 168.211C169.39 169.554 160.326 173.099 154.053 179.816C132.803 202.554 140.37 250.579 146.932 277.888C154.172 307.995 167.842 337.947 189.83 360.186C192.229 355.651 196.282 354.365 199.099 355.364C201.832 356.331 202.907 359.098 203.887 361.576C205.673 366.129 207.164 370.792 208.35 375.537C215.93 380.593 224.131 384.649 232.749 387.605C245.859 392.061 259.462 394.908 273.258 396.084C275.124 372.647 286.935 361.117 294.591 372.43C297.819 377.218 299.088 383.091 300.514 388.602C301.129 391.077 301.603 393.585 301.933 396.114C316.156 394.914 330.163 391.884 343.609 387.097C353.237 383.769 362.606 379.733 371.638 375.023C371.881 373.091 372.159 371.168 372.488 369.258C373.272 364.908 374.188 358.824 377.624 356.082C378.51 355.378 379.561 354.914 380.678 354.735C381.794 354.555 382.938 354.665 384 355.056C387.119 356.449 389.729 358.776 391.469 361.716C396.002 357.606 403.097 349.134 405.175 341.528C405.188 338.475 404.918 335.426 404.37 332.422Z" fill="#0D1226"/>
<path d="M197.264 356.969C195.928 357.088 194.655 357.59 193.596 358.413C192.538 359.236 191.738 360.347 191.293 361.612C195.817 366.091 200.709 370.182 205.917 373.844C204.839 369.85 203.54 365.92 202.026 362.071C201.166 359.869 200.103 357.003 197.264 356.969Z" fill="#5978FF"/>
<path d="M468.506 106.054C468.074 105.302 467.559 104.6 466.971 103.963C465.785 102.633 464.228 101.688 462.501 101.248C460.774 100.809 458.954 100.896 457.277 101.498C455.159 102.313 453.39 103.839 452.272 105.814C452.505 106.88 452.485 107.986 452.214 109.043C451.944 110.101 451.43 111.08 450.715 111.904C451.175 114.065 452.347 116.01 454.044 117.425C455.742 118.84 457.865 119.643 460.074 119.707C462.283 119.77 464.449 119.09 466.224 117.775C468 116.459 469.282 114.586 469.866 112.454C469.133 111.58 468.626 110.539 468.389 109.423C468.152 108.308 468.192 107.151 468.506 106.054Z" fill="#FFCEB6"/>
<path d="M265.832 91.8459C265.832 92.5222 266.101 93.1708 266.579 93.6491C267.057 94.1273 267.706 94.396 268.382 94.396C269.058 94.396 269.707 94.1273 270.185 93.6491C270.663 93.1708 270.932 92.5222 270.932 91.8459C270.932 91.1696 270.663 90.521 270.185 90.0428C269.707 89.5646 269.058 89.2959 268.382 89.2959C267.706 89.2959 267.057 89.5646 266.579 90.0428C266.101 90.521 265.832 91.1696 265.832 91.8459Z" fill="#1D1D1B"/>
<path d="M261.441 79.3135C261.615 79.1288 261.713 78.8844 261.713 78.6303C261.713 78.3762 261.615 78.1317 261.441 77.9471C261.259 77.7676 261.013 77.667 260.758 77.667C260.502 77.667 260.257 77.7676 260.075 77.9471C258.11 80.1901 256.998 83.0536 256.934 86.0349C256.864 86.5331 256.927 87.0408 257.114 87.5076C257.184 87.6268 257.278 87.7309 257.389 87.8134C257.5 87.896 257.626 87.9555 257.761 87.9884C257.895 88.0212 258.035 88.0268 258.171 88.0048C258.308 87.9827 258.439 87.9335 258.556 87.86C258.673 87.7865 258.775 87.6903 258.854 87.577C258.933 87.4637 258.989 87.3356 259.018 87.2003C259.047 87.065 259.049 86.9252 259.023 86.7893C258.997 86.6534 258.944 86.524 258.867 86.4089C258.823 83.8077 259.739 81.2815 261.441 79.3135ZM258.891 86.7511C258.891 86.8828 258.878 86.8594 258.878 86.7256L258.891 86.7511ZM268.077 111.731C269.274 112.927 270.818 113.715 272.489 113.982C274.16 114.249 275.873 113.982 277.383 113.218C277.498 113.157 277.599 113.074 277.681 112.973C277.762 112.873 277.823 112.756 277.859 112.632C277.895 112.507 277.905 112.376 277.889 112.247C277.873 112.118 277.831 111.994 277.766 111.882C277.701 111.769 277.614 111.671 277.51 111.594C277.406 111.516 277.288 111.46 277.162 111.429C277.035 111.398 276.904 111.392 276.776 111.413C276.648 111.434 276.526 111.481 276.416 111.55C275.277 112.108 273.991 112.292 272.742 112.077C271.492 111.862 270.342 111.259 269.454 110.354C269.272 110.171 269.024 110.068 268.766 110.068C268.508 110.068 268.26 110.171 268.077 110.354C267.895 110.536 267.792 110.784 267.792 111.042C267.792 111.3 267.895 111.548 268.077 111.731Z" fill="#1D1D1B"/>
<path d="M508.018 260.929C506.605 260.87 363.221 254.149 360.102 254.002C363.611 251.287 366.926 248.331 370.024 245.155C371.033 245.198 505.509 251.488 507.523 251.531C507.779 251.531 508.025 251.429 508.207 251.247C508.388 251.066 508.49 250.82 508.49 250.564C508.49 250.307 508.388 250.061 508.207 249.88C508.025 249.699 507.779 249.597 507.523 249.597C506.28 249.537 372.684 243.336 371.79 243.288C376.913 237.62 380.515 232.575 382.149 225.497C383.26 225.497 390.56 219.921 393.22 210.87C394.2 211.698 395.411 212.205 396.688 212.322C397.433 212.277 398.158 212.059 398.804 211.686C399.451 211.313 400.002 210.795 400.414 210.173C400.826 209.551 401.088 208.841 401.179 208.1C401.27 207.36 401.188 206.608 400.938 205.904C404.069 206.315 407.208 206.677 410.354 206.99C406.971 210.248 403.559 213.484 400.118 216.697C397.311 216.527 394.495 216.31 391.692 216.06C390.46 215.951 390.46 217.885 391.692 217.993C393.856 218.187 396.032 218.344 398.208 218.491C397.254 219.373 396.308 220.278 395.354 221.162C394.436 222.012 395.8 223.372 396.72 222.526C398.11 221.251 399.464 219.953 400.83 218.671C405.832 218.973 410.839 219.118 415.841 219.154C415.189 219.855 414.513 220.543 413.871 221.245C413.021 222.165 414.39 223.529 415.238 222.611C416.3 221.451 417.388 220.314 418.476 219.179C421.281 219.179 424.09 219.139 426.902 219.058C427.158 219.058 427.404 218.956 427.586 218.775C427.767 218.594 427.869 218.348 427.869 218.091C427.869 217.835 427.767 217.589 427.586 217.408C427.404 217.226 427.158 217.124 426.902 217.124C424.713 217.184 422.526 217.209 420.327 217.22C423.258 214.174 426.247 211.184 429.293 208.252C430.939 208.312 438.602 208.433 438.602 208.433C438.634 208.64 438.746 208.826 438.913 208.953C439.079 209.079 439.289 209.136 439.497 209.111C439.731 209.106 439.957 209.031 440.148 208.895C440.338 208.76 440.483 208.57 440.564 208.35C440.645 208.131 440.658 207.892 440.601 207.666C440.544 207.439 440.42 207.235 440.245 207.079C439.412 206.174 437.888 206.489 436.788 206.476C434.951 206.45 433.113 206.391 431.277 206.342C433.805 203.934 436.367 201.569 438.964 199.249C439.894 198.414 438.539 197.06 437.599 197.882C434.529 200.626 431.515 203.426 428.557 206.282C428.304 206.27 424.42 206.227 414.717 205.432C416.29 203.898 417.885 202.375 419.443 200.828C419.613 200.644 419.705 200.402 419.701 200.152C419.696 199.902 419.594 199.664 419.418 199.487C419.241 199.31 419.002 199.208 418.752 199.204C418.502 199.199 418.26 199.291 418.077 199.461C416.132 201.395 414.137 203.286 412.167 205.216C411.955 205.192 407.573 204.888 400.118 203.873C399.965 203.59 399.803 203.312 399.632 203.04C400.372 203.168 401.134 203.101 401.841 202.846C402.549 202.59 403.177 202.155 403.665 201.583C404.153 201.011 404.484 200.322 404.625 199.583C404.766 198.844 404.712 198.082 404.468 197.37C403.531 193.258 396.18 186.156 386.83 184.584V181.993C393.805 182.316 500.011 187.306 500.119 187.306C500.376 187.306 500.622 187.204 500.803 187.023C500.984 186.842 501.086 186.596 501.086 186.339C501.086 186.083 500.984 185.837 500.803 185.655C500.622 185.474 500.376 185.372 500.119 185.372C498.245 185.287 393.069 180.361 386.83 180.07C386.83 172.565 386.83 159.071 386.818 155.771C396.329 156.134 490.944 158.249 492.202 158.225C492.456 158.218 492.697 158.113 492.877 157.934C493.057 157.754 493.161 157.512 493.169 157.258C495.24 131.97 501.768 44.5663 500.094 19.0342C500.09 18.7791 499.986 18.5357 499.806 18.3553C499.626 18.1749 499.382 18.0717 499.127 18.0673C497.289 17.995 262.094 10.6297 261.199 10.6701C260.944 10.6755 260.702 10.7791 260.522 10.9593C260.341 11.1394 260.238 11.3822 260.232 11.637C260.232 13.6217 260.158 32.3942 260.081 53.536C256.669 48.3169 248.545 46.2663 243.931 50.4951C243.57 48.3199 242.551 46.3075 241.012 44.7286C239.473 43.1498 237.487 42.0801 235.322 41.6635C233.156 41.2469 230.915 41.5034 228.9 42.3985C226.885 43.2935 225.192 44.7842 224.05 46.6701C221.632 45.2345 218.85 44.5317 216.04 44.647C215.274 44.6975 214.536 44.9561 213.906 45.3949C213.276 45.8338 212.777 46.4363 212.464 47.1376C195.676 48.4359 180.23 64.3991 182.076 92.4154C183.228 110.053 190 113.398 192.914 123.26C193.786 126.289 194.044 129.461 193.673 132.591C193.301 135.721 192.309 138.745 190.753 141.486C189.928 142.925 188.904 144.58 189.495 146.127C191.195 150.541 204.99 148.516 208.048 138.042C208.802 141.576 210.848 144.701 213.786 146.805C209.977 147.483 206.232 148.482 202.591 149.791C202.348 149.864 202.142 150.027 202.017 150.248C201.891 150.468 201.855 150.728 201.915 150.975C202.761 153.699 203.758 156.374 204.901 158.988C201.672 161.313 199.108 164.443 197.463 168.066C197.803 168.115 199.163 168.296 199.508 168.344C206.123 154.942 222.483 154.137 237.303 155.992C272.987 160.433 299.875 185.275 317.417 216.825C317.842 217.605 319.497 220.482 319.117 221.634C319.071 221.826 319.086 222.027 319.159 222.211C319.231 222.395 319.358 222.552 319.523 222.661C319.688 222.77 319.882 222.826 320.079 222.822C320.277 222.818 320.468 222.753 320.628 222.637C322.646 224.854 323.703 227.782 323.566 230.778C323.639 232.012 325.572 232.023 325.5 230.778C325.311 227.654 324.75 223.897 322.368 221.676C326.533 222.467 326.901 227.129 328.62 226.379C328.836 226.29 329.012 226.126 329.114 225.916C329.216 225.706 329.238 225.466 329.174 225.242C328.716 224.045 328.002 222.963 327.081 222.072C326.16 221.181 325.056 220.501 323.845 220.082C335.32 210.59 354.713 193.199 369.533 198.675C381.463 203.137 386.32 221.61 374.116 237.656C364.958 249.665 348.404 260.985 335.135 267.209C328.961 270.467 322.152 272.343 315.181 272.708C306.031 273.031 296.963 270.885 288.929 266.495C288.708 266.38 288.452 266.354 288.213 266.422C287.974 266.49 287.77 266.648 287.644 266.862C287.518 267.076 287.479 267.331 287.536 267.573C287.592 267.815 287.739 268.026 287.947 268.163C294.471 271.692 301.65 273.844 309.04 274.485C315.339 275.115 321.701 274.38 327.691 272.332C338.455 268.297 348.586 262.741 357.775 255.834C360.48 255.955 508.001 262.868 508.084 262.87C509.272 262.887 509.272 260.978 508.018 260.929ZM412.904 207.203C417.426 207.617 421.101 207.889 426.645 208.133C423.595 211.111 420.601 214.145 417.664 217.235C412.722 217.222 407.766 217.065 402.821 216.81C406.208 213.645 409.57 210.443 412.904 207.203ZM231.927 153.537C222.851 152.887 213.864 153.478 206.427 157.968C205.577 155.779 204.795 153.567 204.045 151.332C208.179 149.878 212.451 148.853 216.795 148.274C235.255 145.785 250.665 152.188 256.452 158.45C248.526 155.749 240.281 154.098 231.927 153.537ZM363.022 194.797C362.925 194.932 362.872 195.094 362.87 195.26C362.867 195.426 362.916 195.59 363.009 195.727C348.971 195.94 333.801 209.24 322.978 218.221C320.528 220.261 321.645 219.421 320.776 219.708C320.182 217.863 319.341 216.107 318.275 214.487C304.696 190.653 285.055 169.755 259.775 159.704C259.75 159.585 259.705 159.471 259.644 159.366C253.309 150.035 237.331 146.002 225.945 145.828C226.939 144.912 227.667 143.744 228.05 142.448C228.433 141.152 228.458 139.776 228.121 138.467C229.43 140.001 231.216 141.05 233.193 141.447C235.17 141.844 237.223 141.565 239.022 140.655C240.793 139.692 242.342 138.37 243.572 136.773C244.802 135.177 245.685 133.341 246.165 131.384C246.9 128.834 246.925 126.371 244.849 124.773C259.495 124.369 265.037 108.036 258.048 96.9608C256.149 93.7948 253.225 91.3729 249.76 90.097C248.8 86.7309 249.104 87.6256 248.081 84.319C248.719 77.6805 255.693 75.8423 259.514 69.344C260.381 70.2344 260.931 70.7593 261.985 71.9366L262.211 12.6081C283.336 12.0939 491.15 20.2582 498.215 20.0457C499.637 43.1553 494.539 114.261 492.775 137.517C491.097 137.466 322.019 132.081 274.209 130.579C273.784 131.225 273.336 131.855 272.866 132.47C318.604 133.932 490.07 139.406 492.644 139.427C491.124 158.682 491.281 155.896 491.277 156.3C462.613 156.791 285.233 148.952 261.703 148.437C261.703 146.595 261.72 143.52 261.73 140.524C261.25 140.789 260.77 141.049 260.296 141.299C259.96 143.887 259.78 146.493 259.756 149.102C259.807 149.315 259.642 150.239 260.723 150.312C262.355 150.397 343.348 154.045 352.401 154.421L354.658 178.511C346.287 178.124 290.96 175.55 290.856 175.548C290.618 175.569 290.396 175.678 290.234 175.854C290.072 176.03 289.981 176.26 289.979 176.499C289.978 176.738 290.065 176.969 290.225 177.147C290.385 177.325 290.605 177.437 290.843 177.461C292.66 177.537 345.367 180.011 354.84 180.446L355.327 185.632C355.329 185.843 355.4 186.047 355.528 186.215C355.657 186.383 355.836 186.505 356.039 186.562C360.511 187.271 365.006 187.826 369.524 188.228C366.941 189.963 364.73 192.196 363.022 194.797ZM354.356 154.489C364.543 154.9 374.736 155.303 384.935 155.698C384.975 162.205 384.935 179.286 384.935 184.34C380.659 183.944 376.355 184.706 372.474 186.545C367.359 186.173 362.263 185.588 357.197 184.79C357.063 183.39 355.104 162.53 354.356 154.489ZM364.726 195.766C367.883 191.083 372.723 187.797 378.24 186.59C383.757 185.383 389.527 186.349 394.351 189.287C392.17 189.172 389.993 189.569 387.993 190.447C387.777 190.579 387.621 190.791 387.559 191.036C387.497 191.282 387.534 191.542 387.663 191.761C387.791 191.979 387.999 192.139 388.244 192.205C388.489 192.271 388.749 192.239 388.97 192.115C390.452 191.485 392.046 191.162 393.656 191.166C395.266 191.17 396.859 191.501 398.337 192.138C400.479 194.051 403.563 197.081 402.545 199.754C401.748 201.845 399.415 201.131 397.796 200.492C395.464 198.894 392.611 198.245 389.818 198.677C389.58 198.753 389.381 198.919 389.262 199.139C389.143 199.359 389.114 199.616 389.181 199.857C389.248 200.098 389.406 200.304 389.622 200.431C389.837 200.558 390.093 200.596 390.337 200.539C392.507 200.302 394.696 200.786 396.563 201.918C398.051 203.405 399.884 206.395 399.005 208.673C398.867 209.145 398.586 209.562 398.2 209.867C397.814 210.172 397.343 210.349 396.852 210.373C395.522 210.166 394.304 209.503 393.407 208.499C393.286 208.383 393.136 208.301 392.974 208.259C392.811 208.217 392.641 208.217 392.478 208.26C392.316 208.303 392.167 208.386 392.046 208.502C391.925 208.618 391.835 208.763 391.786 208.924C390.475 214.513 387.252 219.468 382.674 222.932C384.788 209.102 377.712 196.565 364.726 195.757V195.766Z" fill="#1D1D1B"/>
<path d="M356.421 127.551C358.446 127.343 360.324 126.398 361.699 124.897C363.074 123.395 363.85 121.441 363.879 119.405C363.945 117.646 363.403 115.917 362.344 114.511C361.285 113.104 359.774 112.105 358.065 111.681C356.539 111.251 354.92 111.275 353.407 111.751C351.894 112.226 350.553 113.133 349.547 114.359C348.541 115.585 347.915 117.078 347.744 118.655C347.574 120.232 347.867 121.824 348.588 123.237C349.351 124.624 350.493 125.765 351.879 126.529C353.266 127.292 354.841 127.647 356.421 127.551ZM356.603 113.385C358.105 113.484 359.508 114.17 360.509 115.293C361.511 116.417 362.03 117.889 361.956 119.393C361.977 120.65 361.613 121.884 360.912 122.928C360.211 123.973 359.207 124.778 358.036 125.235C356.864 125.693 355.58 125.78 354.357 125.487C353.134 125.194 352.03 124.533 351.194 123.594C350.357 122.655 349.827 121.483 349.677 120.234C349.526 118.985 349.76 117.72 350.349 116.609C350.938 115.498 351.853 114.593 352.971 114.017C354.089 113.441 355.356 113.22 356.603 113.385ZM376.498 128.203C378.523 127.995 380.401 127.05 381.776 125.549C383.15 124.047 383.926 122.093 383.954 120.058C384.023 118.298 383.482 116.568 382.422 115.161C381.363 113.753 379.851 112.755 378.14 112.333C376.614 111.905 374.996 111.93 373.484 112.406C371.972 112.883 370.632 113.789 369.626 115.015C368.621 116.241 367.995 117.733 367.824 119.309C367.653 120.885 367.946 122.477 368.665 123.889C369.428 125.276 370.569 126.418 371.956 127.181C373.343 127.945 374.918 128.299 376.498 128.203ZM376.678 114.044C378.181 114.143 379.584 114.828 380.586 115.951C381.588 117.075 382.108 118.548 382.033 120.051C382.054 121.309 381.69 122.543 380.989 123.587C380.288 124.631 379.285 125.436 378.113 125.894C376.942 126.351 375.659 126.44 374.436 126.146C373.212 125.853 372.108 125.193 371.272 124.254C370.435 123.315 369.905 122.143 369.754 120.894C369.603 119.646 369.837 118.381 370.426 117.27C371.014 116.158 371.929 115.253 373.047 114.677C374.164 114.1 375.432 113.879 376.678 114.044ZM395.255 128.203C397.281 127.995 399.159 127.051 400.534 125.55C401.91 124.048 402.685 122.094 402.714 120.058C402.78 118.298 402.238 116.57 401.179 115.163C400.12 113.756 398.609 112.757 396.9 112.333C395.374 111.903 393.755 111.927 392.241 112.402C390.728 112.878 389.387 113.784 388.381 115.011C387.375 116.237 386.749 117.73 386.579 119.307C386.41 120.884 386.703 122.477 387.425 123.889C388.187 125.276 389.328 126.418 390.714 127.182C392.101 127.946 393.675 128.3 395.255 128.203ZM395.43 114.044C396.932 114.143 398.335 114.828 399.337 115.951C400.339 117.075 400.859 118.548 400.785 120.051C400.805 121.309 400.441 122.543 399.74 123.587C399.04 124.631 398.036 125.436 396.865 125.894C395.693 126.351 394.41 126.44 393.187 126.146C391.964 125.853 390.86 125.193 390.023 124.254C389.186 123.315 388.656 122.143 388.505 120.894C388.354 119.646 388.588 118.381 389.177 117.27C389.765 116.158 390.68 115.253 391.798 114.677C392.915 114.1 394.183 113.879 395.43 114.044ZM342.823 198.56C343.101 198.737 343.248 198.711 344.225 198.633C344.482 198.633 344.727 198.531 344.909 198.349C345.09 198.168 345.192 197.922 345.192 197.666C345.192 197.409 345.09 197.163 344.909 196.982C344.727 196.801 344.482 196.699 344.225 196.699C340.842 196.531 337.457 196.348 334.072 196.18C334.737 195.528 335.379 194.85 336.054 194.21C336.224 194.027 336.317 193.785 336.312 193.535C336.307 193.285 336.206 193.046 336.029 192.87C335.852 192.693 335.614 192.591 335.364 192.587C335.114 192.582 334.871 192.674 334.688 192.844C334.386 193.146 334.072 193.448 333.77 193.751L333.757 193.775C332.984 194.525 332.236 195.298 331.473 196.059C325.006 195.732 318.544 195.402 312.086 195.069C310.841 195.007 310.841 196.941 312.086 197.003C317.936 197.304 323.786 197.603 329.637 197.897C327.37 200.192 325.138 202.521 322.941 204.882C321.296 204.786 319.656 204.685 318.021 204.581C316.776 204.508 316.789 206.442 318.021 206.514C319.084 206.574 320.146 206.648 321.224 206.708C321.152 206.793 321.067 206.865 320.994 206.95C320.161 207.868 321.515 209.234 322.361 208.314C322.807 207.819 323.279 207.347 323.738 206.852L332.187 207.36C333.432 207.432 333.419 205.499 332.187 205.426L325.478 205.027C327.71 202.655 329.977 200.318 332.278 198.014C335.753 198.199 339.291 198.38 342.823 198.56ZM443.047 340.93C442.344 299.492 424.134 271.517 383.06 273.463C370.947 274.02 352.353 276.829 340.213 281.149C333.126 283.672 325.703 287.212 321.443 293.37C319.522 296.217 318.562 299.604 318.703 303.035C318.844 306.466 320.079 309.763 322.227 312.442C323 313.409 324.32 312.079 323.593 311.076C317.773 303.041 319.369 292.618 335.136 285.285C345.974 280.219 361.172 277.649 373.1 276.291C384.656 274.987 396.403 274.611 407.512 278.629C431.022 287.095 439.628 311.248 440.907 336.43C441.386 346.084 440.892 355.762 439.432 365.317C439.22 366.537 441.077 367.057 441.294 365.836C442.593 357.6 443.179 349.267 443.047 340.93Z" fill="#1D1D1B"/>
<path d="M405.064 327.787C405.26 326.364 405.748 324.997 406.497 323.772C407.246 322.546 408.24 321.489 409.417 320.666C409.526 320.602 409.622 320.518 409.699 320.418C409.776 320.317 409.832 320.203 409.865 320.08C409.898 319.958 409.906 319.831 409.889 319.705C409.873 319.58 409.832 319.459 409.768 319.349C409.705 319.24 409.621 319.144 409.52 319.067C409.42 318.99 409.305 318.933 409.183 318.901C409.061 318.868 408.933 318.86 408.808 318.876C408.682 318.893 408.561 318.934 408.452 318.998C405.778 320.828 403.932 323.637 403.313 326.818L403.277 326.841C403.18 325.792 403.233 324.734 403.435 323.7C403.795 321.578 404.607 319.557 405.817 317.776C406.518 316.739 404.837 315.77 404.149 316.798C402.615 319.082 401.673 321.711 401.405 324.448C401.193 326.429 401.193 329.848 403.821 330.126C406.769 340.069 403.097 352.195 408.996 376.178C409.072 376.416 409.237 376.615 409.458 376.734C409.678 376.853 409.935 376.882 410.176 376.815C410.417 376.747 410.623 376.59 410.75 376.374C410.877 376.159 410.915 375.902 410.857 375.659C404.676 350.544 409.234 338.888 405.064 327.787ZM317.055 313.978C318.219 317.735 318.254 321.751 317.153 325.526C316.053 329.302 313.867 332.671 310.867 335.214C309.91 336.017 311.292 337.351 312.233 336.58C315.47 333.789 317.826 330.118 319.015 326.013C320.204 321.908 320.174 317.546 318.929 313.458C318.542 312.285 316.67 312.803 317.055 313.978ZM391.483 361.679C389.745 358.738 387.134 356.41 384.014 355.019C382.952 354.629 381.808 354.518 380.692 354.698C379.575 354.878 378.524 355.343 377.639 356.047C376.047 357.476 374.887 359.322 374.29 361.377C372.397 366.881 369.798 383.154 371.075 398.979C371.083 399.208 371.172 399.427 371.327 399.596C371.481 399.766 371.69 399.875 371.917 399.906C372.144 399.936 372.375 399.885 372.568 399.762C372.761 399.638 372.904 399.451 372.972 399.232C373.293 398.418 373.64 397.774 372.915 397.36C372.179 386.614 372.966 375.819 375.253 365.293C375.979 361.97 377.346 356.519 381.672 356.519C385.038 356.519 388.158 360.095 390.011 362.924C393.305 368.314 395.076 374.496 395.136 380.812C395.185 382.058 397.119 382.058 397.07 380.812C397.004 374.042 395.071 367.421 391.483 361.679ZM300.513 388.594C299.09 383.095 297.83 377.21 294.591 372.423C290.264 366.016 284.854 367.049 280.426 372.773C272.735 382.687 272.61 401.079 273.228 413.404C273.288 414.636 275.221 414.649 275.162 413.404C274.571 401.763 274.473 386.775 280.292 376.484C281.531 373.944 283.517 371.843 285.985 370.466C288.885 369.142 290.94 370.559 292.73 373.111C295.849 377.548 297.099 383.052 298.429 388.214C300.756 397.196 300.503 402.804 302.08 410.739C302.32 411.959 304.181 411.438 303.941 410.218C302.505 403.015 302.39 395.84 300.513 388.594ZM203.887 361.574C202.905 359.097 201.832 356.33 199.099 355.363C197.823 355.006 196.474 355.006 195.197 355.362C193.921 355.718 192.766 356.416 191.859 357.382C189.939 359.619 188.573 362.277 187.87 365.14C184.602 375.34 184.107 386.584 183.665 397.158C183.616 398.403 185.55 398.403 185.599 397.158C186.024 386.958 187.097 356.868 197.25 357.006C200.066 357.042 201.131 359.896 202.012 362.118C206.851 374.426 209.512 387.481 209.877 400.7C209.877 400.957 209.979 401.203 210.16 401.384C210.342 401.565 210.588 401.667 210.844 401.667C211.1 401.667 211.346 401.565 211.528 401.384C211.709 401.203 211.811 400.957 211.811 400.7C211.443 387.299 208.762 374.063 203.887 361.574ZM464.289 99.7869C466.67 100.775 468.658 102.521 469.946 104.755C470.337 104.292 470.601 103.735 470.71 103.138C470.819 102.542 470.77 101.927 470.568 101.355C470.267 100.64 469.711 100.061 469.008 99.7308C468.306 99.4005 467.506 99.3417 466.762 99.5659C466.791 98.9879 466.643 98.4148 466.337 97.9232C465.783 97.1986 464.512 96.8777 462.82 98.2122C462.907 97.8882 462.918 97.5487 462.853 97.2198C462.787 96.8908 462.648 96.5812 462.444 96.3146C461.409 95.3732 458.772 96.5271 457.648 97.6449C457.685 97.5523 457.701 97.453 457.696 97.3537C457.69 97.2543 457.664 97.1572 457.618 97.069C457.572 96.9808 457.508 96.9034 457.429 96.8422C457.351 96.781 457.26 96.7373 457.164 96.7141C455.661 96.2891 451.067 99.7401 451.031 104.207C452.393 102.055 454.456 100.44 456.872 99.6348C459.288 98.8294 461.908 98.8831 464.289 99.7869ZM454.227 108.321C454.227 108.505 454.281 108.685 454.384 108.838C454.486 108.991 454.631 109.11 454.801 109.181C454.971 109.251 455.159 109.27 455.339 109.234C455.52 109.198 455.686 109.109 455.816 108.979C455.946 108.849 456.035 108.683 456.07 108.503C456.106 108.322 456.088 108.135 456.018 107.965C455.947 107.795 455.828 107.649 455.675 107.547C455.522 107.445 455.342 107.39 455.158 107.39C454.911 107.39 454.674 107.488 454.499 107.663C454.325 107.837 454.227 108.074 454.227 108.321ZM465.468 108.878C465.468 108.631 465.37 108.394 465.196 108.22C465.021 108.045 464.784 107.947 464.537 107.947C464.353 107.947 464.173 108.002 464.02 108.104C463.867 108.206 463.748 108.351 463.678 108.522C463.607 108.692 463.589 108.879 463.625 109.059C463.66 109.24 463.749 109.406 463.879 109.536C464.009 109.666 464.175 109.755 464.356 109.791C464.536 109.827 464.724 109.808 464.894 109.738C465.064 109.667 465.209 109.548 465.311 109.395C465.414 109.242 465.468 109.062 465.468 108.878ZM461.854 111.802C461.637 111.681 461.383 111.648 461.143 111.709C460.902 111.77 460.694 111.92 460.562 112.129C460.57 112.118 460.578 112.106 460.585 112.093C460.478 112.226 460.327 112.316 460.16 112.346L460.111 112.359C459.817 112.38 459.521 112.372 459.229 112.333C458.947 112.3 458.67 112.229 458.407 112.121C458.371 112.108 458.347 112.084 458.309 112.072C458.199 112.008 458.079 111.967 457.953 111.951C457.828 111.934 457.7 111.942 457.578 111.975C457.456 112.007 457.341 112.064 457.241 112.141C457.14 112.218 457.056 112.314 456.993 112.423C456.929 112.533 456.888 112.654 456.871 112.779C456.855 112.905 456.863 113.032 456.896 113.154C456.928 113.277 456.985 113.391 457.062 113.492C457.139 113.592 457.235 113.676 457.344 113.74C457.722 113.935 458.125 114.078 458.541 114.165C461.945 114.853 463.097 112.456 461.854 111.802ZM449.186 120.854C450.304 121.6 450.697 121.743 454.601 123.974C455.143 124.273 455.379 123.936 456.726 123.054V125.328C456.726 125.52 456.802 125.704 456.938 125.84C457.074 125.976 457.258 126.052 457.451 126.052C457.643 126.052 457.827 125.976 457.963 125.84C458.099 125.704 458.175 125.52 458.175 125.328V121.715C458.174 121.588 458.14 121.464 458.077 121.354C458.014 121.244 457.923 121.152 457.813 121.088C457.704 121.024 457.579 120.989 457.453 120.987C457.326 120.985 457.201 121.016 457.089 121.077C456.375 121.549 455.674 122.021 454.964 122.493L450.336 119.822C450.641 118.712 451.347 117.755 452.319 117.138C453.064 116.63 452.378 115.361 451.581 115.88C450.379 116.661 449.463 117.811 448.97 119.156C448.778 119.751 448.681 120.559 449.186 120.854ZM468.575 116.311C467.799 115.79 467.077 117.061 467.848 117.567C468.814 118.196 469.519 119.154 469.831 120.264L465.203 122.935C464.489 122.463 463.787 121.991 463.078 121.519C462.967 121.455 462.841 121.421 462.712 121.422C462.584 121.422 462.458 121.456 462.348 121.521C462.237 121.586 462.146 121.679 462.083 121.791C462.02 121.902 461.988 122.029 461.99 122.157V125.77C461.99 125.962 462.066 126.146 462.202 126.282C462.338 126.418 462.522 126.494 462.714 126.494C462.906 126.494 463.091 126.418 463.227 126.282C463.362 126.146 463.439 125.962 463.439 125.77V123.496C464.767 124.369 465.009 124.718 465.564 124.416C466.784 123.715 470.362 121.67 470.917 121.332C471.134 121.166 471.289 120.932 471.359 120.667C471.429 120.403 471.409 120.123 471.303 119.87C470.843 118.399 469.876 117.138 468.575 116.311Z" fill="#1D1D1B"/>
<path d="M377.383 75.0932C376.512 75.3999 375.558 75.3649 374.712 74.9954C369.952 82.2609 370.224 81.3811 370.698 82.2354C372.298 85.0429 373.991 87.7964 375.774 90.4911C377.373 87.1399 380.609 82.0654 380.609 81.6319C380.6 81.4172 380.832 82.0994 377.383 75.0932ZM376.131 73.3528C376.508 73.3534 376.879 73.2689 377.218 73.1055C377.557 72.9421 377.855 72.7041 378.089 72.4093C376.899 72.5524 375.696 72.5317 374.512 72.3477C374.688 72.6274 374.925 72.8634 375.206 73.0375C375.486 73.2117 375.803 73.3196 376.131 73.3528Z" fill="#F8971F"/>
<path d="M365.579 62.1168C365.825 62.052 366.087 62.0865 366.309 62.2129C366.53 62.3392 366.693 62.5473 366.763 62.7925C369.077 73.3836 384.328 72.9926 386.572 62.665C386.641 62.4194 386.805 62.2109 387.027 62.0845C387.248 61.9581 387.511 61.9239 387.758 61.9893C388.106 62.1811 388.516 62.2278 388.898 62.1191C389.28 62.0105 389.605 61.7554 389.8 61.4091C389.907 61.1556 389.936 60.8758 389.883 60.6057C389.83 60.3356 389.698 60.0873 389.504 59.8927C389.309 59.698 389.061 59.5659 388.791 59.5131C388.521 59.4604 388.241 59.4894 387.987 59.5965C387.859 59.669 387.716 59.7115 387.569 59.7208C387.422 59.73 387.275 59.7058 387.139 59.65C387.003 59.5941 386.881 59.5081 386.783 59.3983C386.684 59.2886 386.612 59.158 386.572 59.0164C383.731 47.6475 369.3 48.0513 366.822 58.7869C366.822 58.8102 366.822 58.8336 366.799 58.8697C366.73 59.1153 366.567 59.3239 366.345 59.4507C366.124 59.5775 365.862 59.6123 365.615 59.5476C365.415 59.485 365.204 59.4686 364.997 59.4998C364.79 59.5311 364.592 59.609 364.42 59.7278C364.248 59.8466 364.104 60.0031 364.001 60.1854C363.899 60.3677 363.838 60.5711 363.826 60.7801C363.815 60.9968 363.858 61.2127 363.949 61.4093C364.041 61.6059 364.179 61.7774 364.351 61.9089C364.524 62.0404 364.726 62.128 364.939 62.1642C365.153 62.2004 365.373 62.1841 365.579 62.1168Z" fill="#FFCEB6"/>
<path d="M342.143 37C341.889 37.0085 341.648 37.1131 341.469 37.2926C341.289 37.4721 341.184 37.7131 341.176 37.9669C341.14 40.0239 339 100.143 339 100.143C339.003 100.398 339.106 100.642 339.287 100.823C339.467 101.003 339.711 101.106 339.967 101.11C351.844 101.59 413.374 104.255 413.588 104.24C415.55 104.106 415.713 102.102 416.463 39.7923C416.495 38.3133 418.988 38.4748 342.143 37ZM369.955 70.5902C370.551 70.9856 371.182 71.3256 371.84 71.6059C372.165 72.4026 372.623 73.1384 373.194 73.782C372.131 75.3885 371.09 77.0077 370.038 78.6164C368.459 81.0262 367.896 81.1664 369.035 83.2086C370.933 86.5448 372.952 89.8032 375.091 92.9837C375.191 93.1427 375.333 93.2699 375.503 93.3501C375.672 93.4303 375.861 93.4601 376.047 93.4359C376.233 93.4117 376.408 93.3346 376.551 93.2137C376.694 93.0928 376.8 92.9333 376.855 92.7542C378.346 89.5838 380.009 86.4973 381.836 83.5082C382.992 81.3449 382.605 81.3045 381.424 78.9033C380.64 77.3074 379.854 75.7157 379.067 74.1283C379.764 73.5628 380.243 72.7725 380.421 71.8928C381.349 71.6023 382.238 71.2006 383.069 70.6964C389.952 74.0667 392.187 82.5392 392.882 90.2041C393.118 93.9201 393.112 97.6474 392.865 101.363L358.397 99.8751C357.891 89.2266 360.11 74.7489 369.955 70.5902ZM374.711 74.9954C375.557 75.3649 376.511 75.3998 377.382 75.0931C378.083 76.4829 379.89 80.1634 380.096 80.5863C380.228 80.8647 380.604 81.3279 380.608 81.6318C380.608 82.0568 377.38 87.1207 375.773 90.491C373.99 87.7961 372.297 85.0427 370.697 82.2353C370.234 81.4257 369.872 82.3798 374.711 74.9954ZM374.511 72.3433C375.694 72.539 376.899 72.5598 378.088 72.405C377.862 72.7089 377.566 72.9536 377.225 73.1179C376.884 73.2823 376.509 73.3614 376.13 73.3485C375.801 73.3186 375.483 73.2121 375.202 73.0376C374.921 72.8631 374.684 72.6254 374.511 72.3433ZM366.763 62.7807C366.693 62.5359 366.53 62.3281 366.309 62.2018C366.088 62.0756 365.826 62.0408 365.58 62.105C365.375 62.1721 365.157 62.1886 364.944 62.1531C364.732 62.1175 364.531 62.031 364.359 61.9008C364.187 61.7707 364.049 61.6009 363.957 61.4059C363.865 61.2109 363.822 60.9965 363.831 60.7811C363.846 60.573 363.908 60.371 364.011 60.19C364.115 60.009 364.258 59.8535 364.43 59.7352C364.601 59.6169 364.798 59.5387 365.004 59.5064C365.21 59.4741 365.42 59.4885 365.62 59.5486C365.867 59.6133 366.129 59.5785 366.351 59.4517C366.572 59.3249 366.735 59.1163 366.804 58.8707C366.814 58.8439 366.822 58.8161 366.827 58.7878C367.266 56.473 368.506 54.3865 370.329 52.8942C372.152 51.402 374.442 50.5991 376.798 50.6265C379.154 50.6539 381.425 51.5097 383.213 53.044C385.001 54.5782 386.192 56.6929 386.577 59.0173C386.618 59.1585 386.691 59.2885 386.789 59.3978C386.887 59.5071 387.009 59.5928 387.145 59.6486C387.281 59.7043 387.428 59.7287 387.574 59.7198C387.721 59.711 387.864 59.6691 387.992 59.5975C388.246 59.4904 388.526 59.4613 388.796 59.5141C389.066 59.5669 389.314 59.699 389.509 59.8936C389.703 60.0883 389.836 60.3365 389.888 60.6067C389.941 60.8768 389.912 61.1565 389.805 61.4101C389.61 61.7563 389.286 62.0115 388.903 62.1201C388.521 62.2287 388.111 62.1821 387.763 61.9902C387.516 61.9231 387.253 61.9565 387.03 62.0832C386.808 62.2098 386.645 62.4194 386.577 62.666C384.335 72.9808 369.029 73.4951 366.763 62.7935V62.7807ZM412.919 102.234L394.814 101.456C395.103 98.1912 395.136 94.9086 394.914 91.6385C394.365 83.2383 392.151 73.6821 384.809 69.4363C386.422 67.996 387.6 66.1329 388.209 64.0579C388.982 64.1404 389.758 63.9499 390.405 63.5194C391.052 63.089 391.527 62.4457 391.749 61.7012C391.87 61.1836 391.866 60.6448 391.739 60.1288C391.611 59.6128 391.364 59.1342 391.016 58.7323C390.668 58.3303 390.23 58.0162 389.738 57.8157C389.246 57.6152 388.713 57.534 388.184 57.5787C388.137 57.4087 388.101 57.2281 388.039 57.0602C389.278 52.519 387.493 47.5507 381.634 44.6586C381.047 44.3025 380.357 44.1529 379.675 44.2336C379.01 44.3781 378.455 45.1516 378.77 45.7551C374.407 44.2059 369.371 42.8587 365.486 45.804C365.195 45.9923 364.964 46.2609 364.821 46.5775C364.748 46.8548 364.761 47.1476 364.859 47.4174C364.956 47.6871 365.132 47.9211 365.365 48.0884C365.839 48.4106 366.373 48.6327 366.936 48.7407C365.534 48.6876 364.151 49.0772 362.983 49.8542C361.424 50.4675 359.971 51.3239 358.68 52.3915C358.271 52.7659 357.974 53.2472 357.824 53.7812C357.674 54.3151 357.676 54.8805 357.83 55.4133C358.508 57.2026 361.058 57.9995 363.028 58.3883C362.517 58.8105 362.151 59.3804 361.978 60.0197C361.805 60.659 361.834 61.3361 362.062 61.9579C362.29 62.5796 362.705 63.1155 363.25 63.4915C363.795 63.8676 364.444 64.0655 365.106 64.0579C365.67 66.0431 366.756 67.8414 368.249 69.2663C358.261 74.292 355.934 88.6486 356.44 99.7986C347.551 99.4161 341.17 99.1398 340.97 99.1335C341.029 97.4058 343.095 41.1417 343.11 38.9168C344.81 38.9401 414.542 40.6168 414.542 40.6168C414.085 76.8356 413.837 97.6672 412.919 102.234Z" fill="#1D1D1B"/>
<path d="M370.574 60.2916C370.768 60.2939 370.958 60.2344 371.116 60.1218C371.275 60.0092 371.393 59.8492 371.455 59.6649C371.517 59.4806 371.518 59.2815 371.46 59.0963C371.401 58.911 371.285 58.7492 371.128 58.6341C370.953 58.4904 370.73 58.4183 370.504 58.4321C370.278 58.4459 370.065 58.5446 369.909 58.7084C369.781 58.8397 369.695 59.0056 369.661 59.1855C369.627 59.3654 369.646 59.5513 369.717 59.72C369.788 59.8888 369.907 60.033 370.06 60.1346C370.212 60.2363 370.391 60.2908 370.574 60.2916ZM381.488 59.6923C381.488 59.9392 381.586 60.1759 381.76 60.3505C381.935 60.525 382.172 60.6231 382.419 60.6231C382.665 60.6231 382.902 60.525 383.077 60.3505C383.251 60.1759 383.349 59.9392 383.349 59.6923C383.319 59.4671 383.208 59.2606 383.036 59.1111C382.865 58.9615 382.646 58.8791 382.419 58.8791C382.191 58.8791 381.972 58.9615 381.801 59.1111C381.629 59.2606 381.518 59.4671 381.488 59.6923ZM370.115 56.271C370.282 56.3644 370.479 56.3889 370.664 56.3393C370.849 56.2897 371.007 56.1699 371.105 56.0054C371.545 55.1257 372.38 55.6824 372.858 55.4147C372.98 55.3412 373.077 55.234 373.139 55.1061C373.201 54.9782 373.224 54.8351 373.206 54.6942C373.188 54.5532 373.13 54.4206 373.038 54.3123C372.946 54.2041 372.824 54.1249 372.688 54.0844C370.654 53.6424 369.005 55.6888 370.115 56.271ZM380.944 55.251C381.254 55.2238 381.566 55.2748 381.851 55.3996C382.136 55.5244 382.385 55.7188 382.576 55.965C383.103 56.6025 384.286 55.7717 383.589 54.9493C383.266 54.566 382.857 54.2644 382.395 54.0691C381.933 53.8737 381.431 53.7902 380.931 53.8251C380.834 53.8208 380.737 53.8362 380.647 53.8705C380.556 53.9048 380.473 53.9572 380.403 54.0246C380.333 54.0919 380.278 54.1728 380.241 54.2622C380.203 54.3517 380.184 54.4478 380.185 54.5448C380.186 54.6418 380.206 54.7376 380.246 54.8264C380.285 54.9151 380.342 54.995 380.413 55.0611C380.484 55.1272 380.567 55.1781 380.659 55.2108C380.75 55.2434 380.847 55.2571 380.944 55.251ZM372.301 63.1136C372.307 63.3343 372.387 63.5468 372.527 63.7176C372.667 63.8883 372.86 64.0078 373.075 64.0571C373.144 64.5448 373.31 65.0138 373.564 65.4362C373.817 65.8586 374.152 66.226 374.55 66.5166C374.948 66.8072 375.4 67.0151 375.879 67.1281C376.359 67.2411 376.856 67.2569 377.342 67.1745C379.769 66.7495 379.558 62.8331 378.224 62.287C377.824 62.1085 377.882 62.1658 373.268 62.1233C373.01 62.1321 372.766 62.2399 372.586 62.4244C372.406 62.6089 372.304 62.8558 372.301 63.1136Z" fill="#1D1D1B"/>
<path d="M530.514 175.866C532.954 175.052 536.296 175.849 542.021 172.553C543.87 171.478 546.709 169.79 546.335 167.272C545.925 164.552 542.854 163.887 540.598 164.431C536.799 165.52 533.32 167.51 530.457 170.232C530.433 169.762 530.397 169.291 530.349 168.819C531.998 164.62 537.548 161.949 540.175 155.523C541.203 152.998 542.387 148.298 538.751 147.195C534.926 146.035 532.756 150.315 531.364 153.058C530.312 155.131 529.372 157.259 528.549 159.433C528.245 158.443 527.911 157.463 527.546 156.496C525.34 150.735 520.79 147.102 518.733 148.506C517.014 149.694 517.972 154.091 518.89 156.243C520.828 160.106 523.539 163.529 526.855 166.299C527.019 166.449 527.227 166.54 527.448 166.56C527.668 166.58 527.89 166.526 528.077 166.407C528.476 169.21 528.374 168.477 528.149 169.465C524.871 167.331 521.338 165.618 517.632 164.365C517.024 164.036 516.35 163.849 515.659 163.818C514.968 163.786 514.279 163.911 513.644 164.182C513.166 164.51 512.782 164.957 512.53 165.479C512.278 166.001 512.167 166.579 512.207 167.158C512.537 172.202 522.55 177.287 528.621 174.264C528.621 174.421 528.621 174.578 528.608 174.735C527.992 175.166 527.521 175.773 527.255 176.476C526.953 177.236 527.654 177.708 528.294 177.623C528.381 177.983 528.409 178.355 528.379 178.724C529.016 178.701 529.654 178.662 530.291 178.639C530.406 177.691 530.478 176.784 530.514 175.866Z" fill="#008545"/>
<path d="M552.738 182.887C552.645 181.382 552.452 179.884 552.16 178.403C552.103 178.199 551.982 178.019 551.813 177.89C551.645 177.761 551.439 177.691 551.227 177.689C546.078 177.921 507.681 179.587 505.82 179.672C505.312 179.672 504.97 179.863 504.887 180.373C502.66 193.087 504.09 206.534 515.429 212.912C523.138 216.709 532.008 217.41 540.217 214.869C551.899 210.224 553.911 195.452 552.738 182.887Z" fill="#FF6D59"/>
<path d="M240.367 90.1896C242.681 89.3646 245.166 89.1359 247.592 89.5245C245.485 81.6806 242.657 74.0484 239.145 66.7252C234.332 56.9501 229.308 50.1118 220.083 47.073C219.268 46.7077 218.386 46.5178 217.492 46.5156C216.599 46.5134 215.715 46.699 214.898 47.0602C220.409 49.7421 225.275 53.5841 229.162 58.3228C236.155 67.5023 240.076 78.6533 240.367 90.1896Z" fill="#5978FF"/>
<path d="M230.165 104.552C229.358 107.855 229.702 111.334 231.139 114.415C232.576 117.496 235.021 119.995 238.07 121.499C240.899 122.794 244.058 123.185 247.117 122.619C250.175 122.052 252.985 120.555 255.162 118.333C260.164 112.916 260.19 103.961 256.381 97.9328C248.343 85.5652 233.232 91.9147 230.165 104.552Z" fill="#5978FF"/>
<path d="M490.191 204.495C480.01 199.282 469.378 208.745 464.072 216.845C462.053 219.929 459.822 223.794 460.011 227.604C460.294 233.342 466.69 238.402 477.224 235.75C487.02 233.31 495.153 224.544 495.777 214.672C496.052 212.601 495.658 210.498 494.653 208.667C493.648 206.837 492.085 205.375 490.191 204.495ZM472.944 209.873C475.817 207.536 481.444 203.698 484.936 204.954C484.861 205.921 483.52 206.779 482.94 207.54C482.584 208.239 482.176 208.909 481.718 209.546C480.681 210.562 478.293 210.619 477.717 212.64C475.458 212.374 473.199 211.867 470.902 211.686C471.24 211.699 472.63 210.128 472.944 209.873ZM468.847 234.252C467.252 234.045 465.754 233.371 464.541 232.315C463.328 231.259 462.455 229.868 462.03 228.316C461.18 223.701 466.099 216.816 469.162 213.441C471.999 213.59 474.82 213.966 477.598 214.565C477.763 215.228 478.101 215.836 478.577 216.327C479.053 216.817 479.65 217.173 480.308 217.358C480.966 217.544 481.661 217.552 482.323 217.382C482.985 217.212 483.59 216.87 484.077 216.391C490.82 218.781 491.712 220.216 492.632 220.052C488.807 229.84 477.719 236.03 468.847 234.252ZM493.878 213.851C493.86 215.428 493.62 216.995 493.166 218.505C493.106 218.436 493.034 218.379 492.953 218.335C490.398 216.914 487.73 215.705 484.976 214.723C485.139 214.179 485.174 213.606 485.08 213.046C484.986 212.487 484.764 211.957 484.432 211.497C483.754 210.589 483.223 210.819 483.769 209.731C484.76 208.088 486.031 206.631 487.526 205.428C492.305 207.215 493.907 210.005 493.878 213.851Z" fill="#1D1D1B"/>
</g>
<g filter="url(#filter0_d_1_2503)">
<rect x="32" y="336" width="198" height="85" rx="12" fill="white" shape-rendering="crispEdges"/>
<g clip-path="url(#clip1_1_2503)">
<path d="M78.9989 368.717L73.121 372.007L74.4338 365.4L69.4883 360.827L76.1775 360.034L78.9989 353.917L81.8202 360.034L88.5094 360.827L83.564 365.4L84.8767 372.007L78.9989 368.717Z" fill="#F8971F"/>
</g>
<g clip-path="url(#clip2_1_2503)">
<path d="M104.999 368.717L99.121 372.007L100.434 365.4L95.4883 360.827L102.177 360.034L104.999 353.917L107.82 360.034L114.509 360.827L109.564 365.4L110.877 372.007L104.999 368.717Z" fill="#F8971F"/>
</g>
<g clip-path="url(#clip3_1_2503)">
<path d="M130.999 368.717L125.121 372.007L126.434 365.4L121.488 360.827L128.177 360.034L130.999 353.917L133.82 360.034L140.509 360.827L135.564 365.4L136.877 372.007L130.999 368.717Z" fill="#F8971F"/>
</g>
<g clip-path="url(#clip4_1_2503)">
<path d="M156.999 368.717L151.121 372.007L152.434 365.4L147.488 360.827L154.177 360.034L156.999 353.917L159.82 360.034L166.509 360.827L161.564 365.4L162.877 372.007L156.999 368.717Z" fill="#F8971F"/>
</g>
<g clip-path="url(#clip5_1_2503)">
<path d="M182.999 368.717L177.121 372.007L178.434 365.4L173.488 360.827L180.177 360.034L182.999 353.917L185.82 360.034L192.509 360.827L187.564 365.4L188.877 372.007L182.999 368.717Z" fill="#F8971F"/>
</g>
<path d="M54.652 384.3H56.252V395.5H54.412V386.268L52.156 386.908L51.708 385.34L54.652 384.3ZM65.7251 394.124C64.9571 395.18 63.8798 395.708 62.4931 395.708C61.1065 395.708 60.0238 395.18 59.2451 394.124C58.4771 393.068 58.0931 391.66 58.0931 389.9C58.0931 388.14 58.4771 386.732 59.2451 385.676C60.0238 384.62 61.1065 384.092 62.4931 384.092C63.8798 384.092 64.9571 384.62 65.7251 385.676C66.5038 386.732 66.8931 388.14 66.8931 389.9C66.8931 391.66 66.5038 393.068 65.7251 394.124ZM62.4931 393.916C63.3251 393.916 63.9598 393.569 64.3971 392.876C64.8345 392.183 65.0531 391.191 65.0531 389.9C65.0531 388.609 64.8345 387.617 64.3971 386.924C63.9598 386.231 63.3251 385.884 62.4931 385.884C61.6718 385.884 61.0371 386.231 60.5891 386.924C60.1518 387.617 59.9331 388.609 59.9331 389.9C59.9331 391.191 60.1518 392.183 60.5891 392.876C61.0371 393.569 61.6718 393.916 62.4931 393.916ZM75.8033 394.124C75.0353 395.18 73.9579 395.708 72.5713 395.708C71.1846 395.708 70.1019 395.18 69.3233 394.124C68.5553 393.068 68.1713 391.66 68.1713 389.9C68.1713 388.14 68.5553 386.732 69.3233 385.676C70.1019 384.62 71.1846 384.092 72.5713 384.092C73.9579 384.092 75.0353 384.62 75.8033 385.676C76.5819 386.732 76.9713 388.14 76.9713 389.9C76.9713 391.66 76.5819 393.068 75.8033 394.124ZM72.5713 393.916C73.4033 393.916 74.0379 393.569 74.4753 392.876C74.9126 392.183 75.1313 391.191 75.1313 389.9C75.1313 388.609 74.9126 387.617 74.4753 386.924C74.0379 386.231 73.4033 385.884 72.5713 385.884C71.7499 385.884 71.1153 386.231 70.6673 386.924C70.2299 387.617 70.0113 388.609 70.0113 389.9C70.0113 391.191 70.2299 392.183 70.6673 392.876C71.1153 393.569 71.7499 393.916 72.5713 393.916ZM85.5294 389.084V390.716H82.8254V393.42H81.1934V390.716H78.4894V389.084H81.1934V386.38H82.8254V389.084H85.5294ZM95.6543 384.3C96.7103 384.3 97.5903 384.652 98.2943 385.356C99.0089 386.06 99.3663 386.935 99.3663 387.98C99.3663 389.015 99.0089 389.889 98.2943 390.604C97.5903 391.308 96.7103 391.66 95.6543 391.66H93.3663V395.5H91.5263V384.3H95.6543ZM95.6543 389.932C96.1983 389.932 96.6463 389.751 96.9983 389.388C97.3503 389.015 97.5263 388.545 97.5263 387.98C97.5263 387.415 97.3503 386.951 96.9983 386.588C96.6463 386.215 96.1983 386.028 95.6543 386.028H93.3663V389.932H95.6543ZM104.065 395.708C102.892 395.708 101.895 395.303 101.073 394.492C100.252 393.681 99.8413 392.684 99.8413 391.5C99.8413 390.316 100.252 389.319 101.073 388.508C101.895 387.697 102.892 387.292 104.065 387.292C105.249 387.292 106.247 387.697 107.057 388.508C107.879 389.319 108.289 390.316 108.289 391.5C108.289 392.684 107.879 393.681 107.057 394.492C106.247 395.303 105.249 395.708 104.065 395.708ZM102.289 393.308C102.769 393.788 103.361 394.028 104.065 394.028C104.769 394.028 105.361 393.788 105.841 393.308C106.321 392.828 106.561 392.225 106.561 391.5C106.561 390.775 106.321 390.172 105.841 389.692C105.361 389.212 104.769 388.972 104.065 388.972C103.361 388.972 102.769 389.212 102.289 389.692C101.809 390.172 101.569 390.775 101.569 391.5C101.569 392.225 101.809 392.828 102.289 393.308ZM111.248 389.708C111.248 389.975 111.392 390.188 111.68 390.348C111.978 390.497 112.336 390.631 112.752 390.748C113.178 390.855 113.605 390.983 114.032 391.132C114.458 391.281 114.816 391.537 115.104 391.9C115.402 392.252 115.552 392.7 115.552 393.244C115.552 394.012 115.253 394.615 114.656 395.052C114.069 395.489 113.328 395.708 112.432 395.708C111.642 395.708 110.965 395.543 110.4 395.212C109.834 394.881 109.424 394.423 109.168 393.836L110.656 392.972C110.933 393.74 111.525 394.124 112.432 394.124C113.338 394.124 113.792 393.825 113.792 393.228C113.792 392.972 113.642 392.764 113.344 392.604C113.056 392.444 112.698 392.311 112.272 392.204C111.856 392.087 111.434 391.953 111.008 391.804C110.581 391.655 110.218 391.409 109.92 391.068C109.632 390.716 109.488 390.273 109.488 389.74C109.488 389.004 109.765 388.412 110.32 387.964C110.885 387.516 111.584 387.292 112.416 387.292C113.077 387.292 113.664 387.441 114.176 387.74C114.698 388.028 115.098 388.433 115.376 388.956L113.92 389.772C113.642 389.164 113.141 388.86 112.416 388.86C112.085 388.86 111.808 388.935 111.584 389.084C111.36 389.223 111.248 389.431 111.248 389.708ZM118.609 385.98C118.395 386.193 118.139 386.3 117.841 386.3C117.542 386.3 117.281 386.193 117.057 385.98C116.843 385.756 116.737 385.495 116.737 385.196C116.737 384.897 116.843 384.641 117.057 384.428C117.27 384.204 117.531 384.092 117.841 384.092C118.15 384.092 118.411 384.204 118.625 384.428C118.838 384.641 118.945 384.897 118.945 385.196C118.945 385.495 118.833 385.756 118.609 385.98ZM116.977 395.5V387.5H118.705V395.5H116.977ZM125.175 389.164H123.191V393.004C123.191 393.335 123.266 393.575 123.415 393.724C123.564 393.863 123.783 393.943 124.071 393.964C124.37 393.975 124.738 393.969 125.175 393.948V395.5C123.852 395.66 122.903 395.548 122.327 395.164C121.751 394.769 121.463 394.049 121.463 393.004V389.164H119.991V387.5H121.463V385.772L123.191 385.26V387.5H125.175V389.164ZM128.374 385.98C128.161 386.193 127.905 386.3 127.606 386.3C127.308 386.3 127.046 386.193 126.822 385.98C126.609 385.756 126.502 385.495 126.502 385.196C126.502 384.897 126.609 384.641 126.822 384.428C127.036 384.204 127.297 384.092 127.606 384.092C127.916 384.092 128.177 384.204 128.39 384.428C128.604 384.641 128.71 384.897 128.71 385.196C128.71 385.495 128.598 385.756 128.374 385.98ZM126.742 395.5V387.5H128.47V395.5H126.742ZM135.901 387.5H137.789L134.669 395.5H132.669L129.549 387.5H131.437L133.677 393.58L135.901 387.5ZM139.931 392.236C140.059 392.844 140.352 393.313 140.811 393.644C141.269 393.964 141.829 394.124 142.491 394.124C143.408 394.124 144.096 393.793 144.555 393.132L145.979 393.964C145.189 395.127 144.021 395.708 142.475 395.708C141.173 395.708 140.123 395.313 139.323 394.524C138.523 393.724 138.123 392.716 138.123 391.5C138.123 390.305 138.517 389.308 139.307 388.508C140.096 387.697 141.109 387.292 142.347 387.292C143.52 387.292 144.48 387.703 145.227 388.524C145.984 389.345 146.363 390.343 146.363 391.516C146.363 391.697 146.341 391.937 146.299 392.236H139.931ZM139.914 390.828H144.619C144.501 390.177 144.229 389.687 143.803 389.356C143.387 389.025 142.896 388.86 142.331 388.86C141.691 388.86 141.157 389.036 140.731 389.388C140.304 389.74 140.032 390.22 139.914 390.828ZM158.379 395.5L156.011 391.42H153.835V395.5H151.995V384.3H156.475C157.478 384.3 158.326 384.652 159.019 385.356C159.723 386.049 160.075 386.897 160.075 387.9C160.075 388.615 159.867 389.271 159.451 389.868C159.046 390.455 158.512 390.881 157.851 391.148L160.395 395.5H158.379ZM153.835 386.028V389.772H156.475C156.966 389.772 157.382 389.591 157.723 389.228C158.064 388.865 158.235 388.423 158.235 387.9C158.235 387.377 158.064 386.935 157.723 386.572C157.382 386.209 156.966 386.028 156.475 386.028H153.835ZM162.634 392.236C162.762 392.844 163.055 393.313 163.514 393.644C163.972 393.964 164.532 394.124 165.194 394.124C166.111 394.124 166.799 393.793 167.258 393.132L168.682 393.964C167.892 395.127 166.724 395.708 165.178 395.708C163.876 395.708 162.826 395.313 162.026 394.524C161.226 393.724 160.826 392.716 160.826 391.5C160.826 390.305 161.22 389.308 162.01 388.508C162.799 387.697 163.812 387.292 165.05 387.292C166.223 387.292 167.183 387.703 167.93 388.524C168.687 389.345 169.066 390.343 169.066 391.516C169.066 391.697 169.044 391.937 169.002 392.236H162.634ZM162.618 390.828H167.322C167.204 390.177 166.932 389.687 166.506 389.356C166.09 389.025 165.599 388.86 165.034 388.86C164.394 388.86 163.86 389.036 163.434 389.388C163.007 389.74 162.735 390.22 162.618 390.828ZM175.698 387.5H177.586L174.466 395.5H172.466L169.346 387.5H171.234L173.474 393.58L175.698 387.5ZM180.312 385.98C180.099 386.193 179.843 386.3 179.544 386.3C179.245 386.3 178.984 386.193 178.76 385.98C178.547 385.756 178.44 385.495 178.44 385.196C178.44 384.897 178.547 384.641 178.76 384.428C178.973 384.204 179.235 384.092 179.544 384.092C179.853 384.092 180.115 384.204 180.328 384.428C180.541 384.641 180.648 384.897 180.648 385.196C180.648 385.495 180.536 385.756 180.312 385.98ZM178.68 395.5V387.5H180.408V395.5H178.68ZM183.774 392.236C183.902 392.844 184.196 393.313 184.654 393.644C185.113 393.964 185.673 394.124 186.334 394.124C187.252 394.124 187.94 393.793 188.398 393.132L189.822 393.964C189.033 395.127 187.865 395.708 186.318 395.708C185.017 395.708 183.966 395.313 183.166 394.524C182.366 393.724 181.966 392.716 181.966 391.5C181.966 390.305 182.361 389.308 183.15 388.508C183.94 387.697 184.953 387.292 186.19 387.292C187.364 387.292 188.324 387.703 189.07 388.524C189.828 389.345 190.206 390.343 190.206 391.516C190.206 391.697 190.185 391.937 190.142 392.236H183.774ZM183.758 390.828H188.462C188.345 390.177 188.073 389.687 187.646 389.356C187.23 389.025 186.74 388.86 186.174 388.86C185.534 388.86 185.001 389.036 184.574 389.388C184.148 389.74 183.876 390.22 183.758 390.828ZM200.63 387.5H202.454L199.942 395.5H198.246L196.582 390.108L194.902 395.5H193.206L190.694 387.5H192.518L194.07 393.02L195.75 387.5H197.398L199.062 393.02L200.63 387.5ZM204.794 389.708C204.794 389.975 204.938 390.188 205.226 390.348C205.525 390.497 205.882 390.631 206.298 390.748C206.725 390.855 207.152 390.983 207.578 391.132C208.005 391.281 208.362 391.537 208.65 391.9C208.949 392.252 209.098 392.7 209.098 393.244C209.098 394.012 208.8 394.615 208.202 395.052C207.616 395.489 206.874 395.708 205.978 395.708C205.189 395.708 204.512 395.543 203.946 395.212C203.381 394.881 202.97 394.423 202.714 393.836L204.202 392.972C204.48 393.74 205.072 394.124 205.978 394.124C206.885 394.124 207.338 393.825 207.338 393.228C207.338 392.972 207.189 392.764 206.89 392.604C206.602 392.444 206.245 392.311 205.818 392.204C205.402 392.087 204.981 391.953 204.554 391.804C204.128 391.655 203.765 391.409 203.466 391.068C203.178 390.716 203.034 390.273 203.034 389.74C203.034 389.004 203.312 388.412 203.866 387.964C204.432 387.516 205.13 387.292 205.962 387.292C206.624 387.292 207.21 387.441 207.722 387.74C208.245 388.028 208.645 388.433 208.922 388.956L207.466 389.772C207.189 389.164 206.688 388.86 205.962 388.86C205.632 388.86 205.354 388.935 205.13 389.084C204.906 389.223 204.794 389.431 204.794 389.708Z" fill="#0D0E10"/>
</g>
<defs>
<filter id="filter0_d_1_2503" x="0" y="306" width="262" height="149" filterUnits="userSpaceOnUse" color-interpolation-filters="sRGB">
<feFlood flood-opacity="0" result="BackgroundImageFix"/>
<feColorMatrix in="SourceAlpha" type="matrix" values="0 0 0 0 0 0 0 0 0 0 0 0 0 0 0 0 0 0 127 0" result="hardAlpha"/>
<feOffset dy="2"/>
<feGaussianBlur stdDeviation="16"/>
<feComposite in2="hardAlpha" operator="out"/>
<feColorMatrix type="matrix" values="0 0 0 0 0 0 0 0 0 0 0 0 0 0 0 0 0 0 0.08 0"/>
<feBlend mode="normal" in2="BackgroundImageFix" result="effect1_dropShadow_1_2503"/>
<feBlend mode="normal" in="SourceGraphic" in2="effect1_dropShadow_1_2503" result="shape"/>
</filter>
<clipPath id="clip0_1_2503">
<rect width="425.004" height="425.004" fill="white" transform="translate(127)"/>
</clipPath>
<clipPath id="clip1_1_2503">
<rect width="20" height="20" fill="white" transform="translate(69 353.5)"/>
</clipPath>
<clipPath id="clip2_1_2503">
<rect width="20" height="20" fill="white" transform="translate(95 353.5)"/>
</clipPath>
<clipPath id="clip3_1_2503">
<rect width="20" height="20" fill="white" transform="translate(121 353.5)"/>
</clipPath>
<clipPath id="clip4_1_2503">
<rect width="20" height="20" fill="white" transform="translate(147 353.5)"/>
</clipPath>
<clipPath id="clip5_1_2503">
<rect width="20" height="20" fill="white" transform="translate(173 353.5)"/>
</clipPath>
</defs>
</svg>
