<svg width="48" height="48" viewBox="0 0 48 48" fill="none" xmlns="http://www.w3.org/2000/svg">
<path d="M42.082 38.0005H42V21.0005H43.827C44.8 21.0005 45.189 19.8335 44.411 19.2495L28.654 9.52247C27.681 8.84147 26.32 8.84147 25.347 9.52247L9.59 19.2495C8.811 19.7365 9.2 21.0005 10.173 21.0005H12V38.0005H11.918C10.306 38.0005 9 39.3065 9 40.9185V43.0275C9 43.5655 9.435 44.0005 9.973 44.0005H44.028C44.565 44.0005 45 43.5655 45 43.0275V40.9185C45 39.3065 43.694 38.0005 42.082 38.0005Z" fill="#9FA8DA"/>
<path d="M23.8524 16.5008H5.70136C4.70136 16.5008 4.30136 15.2008 5.10136 14.7008L21.3014 4.70078C22.3014 4.00078 23.7014 4.00078 24.7014 4.70078L40.9014 14.7008C41.7014 15.3008 41.3014 16.5008 40.3014 16.5008H28.9584H23.8524Z" stroke="#18193F" stroke-width="3" stroke-linecap="round" stroke-linejoin="round"/>
<path d="M23 13C24.1046 13 25 12.1046 25 11C25 9.89543 24.1046 9 23 9C21.8954 9 21 9.89543 21 11C21 12.1046 21.8954 13 23 13Z" fill="#18193F"/>
<path d="M28.202 40.5H16.638H9.489H5.5C4.948 40.5 4.5 40.052 4.5 39.5V37.5C4.5 35.843 5.843 34.5 7.5 34.5H24.213" stroke="#18193F" stroke-width="3" stroke-linecap="round" stroke-linejoin="round"/>
<path d="M7.5 17.5V33.5" stroke="#18193F" stroke-width="3" stroke-miterlimit="10" stroke-linecap="round" stroke-linejoin="round"/>
<path d="M38.5 16.5V19.309" stroke="#18193F" stroke-width="3" stroke-miterlimit="10" stroke-linecap="round" stroke-linejoin="round"/>
<path d="M32.5 16.5V20.011" stroke="#18193F" stroke-width="3" stroke-miterlimit="10" stroke-linecap="round" stroke-linejoin="round"/>
<path d="M13.5 16.5V33.6" stroke="#18193F" stroke-width="3" stroke-miterlimit="10" stroke-linecap="round" stroke-linejoin="round"/>
<path d="M36.2869 32.071C33.9199 31.916 32.0469 29.947 32.0469 27.54C32.0469 25.032 34.0799 23 36.5869 23C39.0939 23 41.1269 25.033 41.1269 27.54C41.1269 28.152 41.0059 28.736 40.7859 29.269" stroke="#18193F" stroke-width="3" stroke-miterlimit="5" stroke-linecap="round" stroke-linejoin="round"/>
<path d="M36.7463 44.5004C32.6853 44.5474 28.5703 42.8134 28.5703 39.2984C28.5703 37.5604 29.9793 36.1504 31.7183 36.1504H32.2703" stroke="#18193F" stroke-width="3" stroke-miterlimit="10" stroke-linecap="round" stroke-linejoin="round"/>
<path d="M36.9219 36.1523H41.4529C43.1909 36.1523 44.6009 37.5613 44.6009 39.3003H44.5999C44.5999 41.2593 43.3219 42.6653 41.4869 43.5173" stroke="#18193F" stroke-width="3" stroke-miterlimit="10" stroke-linecap="round" stroke-linejoin="round"/>
</svg>
