<svg width="48" height="48" viewBox="0 0 48 48" fill="none" xmlns="http://www.w3.org/2000/svg">
<path d="M44.8108 17C43.6008 17 42.8208 17.833 42.6198 19.191C42.4248 20.514 41.3638 27.838 41.3078 28.219C41.3458 27.614 41.1418 26.996 40.6788 26.533C39.8238 25.678 38.4368 25.678 37.5798 26.533L35.3118 28.801C32.3198 31.793 30.2468 31.352 28.5218 33.077C27.2738 34.325 26.7608 36.121 26.7608 38.691C26.7608 39.43 26.7598 40.119 26.7578 40.71C26.7548 41.803 27.6408 42.685 28.7338 42.685L35.4768 42.684C36.3418 42.684 37.0808 42.116 37.3608 41.297C37.6508 40.448 38.2778 39.387 39.6098 38.27C41.2028 36.933 42.7918 35.669 44.8098 33.65C46.2688 32.191 46.0988 29.512 46.9978 19.159C46.9818 17.965 46.0108 17 44.8108 17Z" fill="#FFE082"/>
<path d="M46.9981 19.1348C46.9971 19.1438 46.9971 19.1508 46.9961 19.1598C46.9961 19.1698 46.9991 19.1798 46.9991 19.1898L46.9981 19.1348Z" fill="#FFE082"/>
<path d="M6.35156 19.1898C6.35156 19.1798 6.35456 19.1698 6.35456 19.1598C6.35356 19.1508 6.35356 19.1438 6.35256 19.1348L6.35156 19.1898Z" fill="#FFE082"/>
<path d="M26.5935 38.691C26.5935 36.121 26.0795 34.325 24.8325 33.077C23.1065 31.351 21.0345 31.793 18.0425 28.801L15.7745 26.533C14.9185 25.678 13.5315 25.678 12.6755 26.533C12.2135 26.996 12.0095 27.613 12.0465 28.219C11.9915 27.837 10.9305 20.514 10.7345 19.191C10.5335 17.833 9.75347 17 8.54347 17C7.34347 17 6.37247 17.965 6.35547 19.161C7.25547 29.512 7.08447 32.191 8.54347 33.65C10.5615 35.669 12.1505 36.934 13.7435 38.27C15.0755 39.387 15.7035 40.449 15.9925 41.297C16.2725 42.115 17.0115 42.684 17.8765 42.684L24.6195 42.685C25.7125 42.685 26.5985 41.803 26.5955 40.71C26.5945 40.119 26.5935 39.43 26.5935 38.691Z" fill="#FFE082"/>
<path d="M39.2955 31.241C39.9175 30.681 40.5735 30.065 41.2815 29.356C42.7595 27.878 42.5855 25.164 43.4985 14.662L43.4995 14.718C43.4995 13.493 42.5065 12.5 41.2815 12.5C40.0565 12.5 39.2665 13.343 39.0635 14.718C38.8605 16.093 37.7305 23.894 37.7305 23.894" stroke="#18193F" stroke-width="3" stroke-miterlimit="10" stroke-linecap="round" stroke-linejoin="round"/>
<path d="M33.4418 28.9455L37.1008 25.2865C37.9668 24.4205 37.9668 23.0165 37.1008 22.1495C36.2348 21.2835 34.8308 21.2835 33.9638 22.1495L31.6678 24.4455C28.6388 27.4745 26.5408 27.0275 24.7938 28.7745C23.5308 30.0375 23.0108 31.8555 23.0108 34.4575C23.0108 35.2055 23.0098 35.9025 23.0078 36.5015C23.0048 37.6085 23.9018 38.5005 25.0078 38.5005L31.8338 38.4995C32.7088 38.4995 33.4578 37.9245 33.7408 37.0955C33.9098 36.5995 34.1938 36.0325 34.6618 35.4235" stroke="#18193F" stroke-width="3" stroke-miterlimit="10" stroke-linecap="round" stroke-linejoin="round"/>
<path d="M7.04256 16.463C6.92656 15.664 6.83356 15.028 6.78756 14.718C6.58456 13.343 5.79456 12.5 4.56956 12.5C3.34456 12.5 2.35156 13.493 2.35156 14.718L2.35256 14.662C3.26556 25.164 3.09156 27.878 4.56956 29.356C6.61256 31.4 8.22056 32.68 9.83356 34.033C11.1816 35.164 11.8176 36.238 12.1106 37.097C12.3936 37.925 13.1426 38.501 14.0176 38.501L20.8436 38.502C21.9506 38.502 22.8466 37.61 22.8436 36.503C22.8426 35.905 22.8406 35.207 22.8406 34.459C22.8406 31.857 22.3206 30.039 21.0576 28.776C19.3106 27.029 17.2126 27.476 14.1836 24.447L11.8886 22.151C11.0216 21.285 9.61756 21.285 8.75156 22.151C7.88556 23.018 7.88556 24.422 8.75156 25.288L12.4106 28.947" stroke="#18193F" stroke-width="3" stroke-miterlimit="10" stroke-linecap="round" stroke-linejoin="round"/>
<path d="M31.5354 13.576C32.0994 12.458 32.4414 11.284 32.4414 10.067C32.4414 7.293 30.2014 5 27.3744 5C25.5084 5 23.8544 6.013 23.0014 7.56C22.1484 6.013 20.4944 5 18.6284 5C17.8284 5 17.0814 5.16 16.4414 5.48" stroke="#18193F" stroke-width="3" stroke-miterlimit="10" stroke-linecap="round" stroke-linejoin="round"/>
<path d="M13.5586 10.0664C13.5586 16.3064 21.2386 20.9994 22.9986 20.9994C23.7986 20.9994 25.8256 19.8794 27.8516 18.1724" stroke="#18193F" stroke-width="3" stroke-miterlimit="10" stroke-linecap="round" stroke-linejoin="round"/>
</svg>
