<svg width="48" height="48" viewBox="0 0 48 48" fill="none" xmlns="http://www.w3.org/2000/svg">
<path d="M44.2318 40.5736L38.1848 38.1246L36.5048 33.7346C36.3448 33.3166 35.9268 33.0566 35.4818 33.0956L27.8038 33.7836L24.7968 22.1016C24.6528 21.5446 24.0698 21.2226 23.5218 21.3986L19.0578 22.8356L15.9238 12.5466C15.8028 12.1496 15.4488 11.8686 15.0348 11.8406L11.0758 11.5726C10.4978 11.5336 10.0078 11.9916 10.0078 12.5706V44.0296C10.0078 45.1186 10.8908 46.0006 11.9788 46.0006H43.5828C44.1048 46.0006 44.5388 45.5986 44.5798 45.0786L44.8528 41.5796C44.8868 41.1436 44.6358 40.7376 44.2318 40.5736Z" fill="#FFAB91"/>
<path d="M37.0004 16.75C37.0004 14.407 35.0944 12.5 32.7504 12.5H31.5204C30.8314 12.5 30.2704 11.939 30.2704 11.25C30.2704 10.584 30.8994 10 31.6164 10H32.4624C33.2204 10 33.4854 10.322 33.6594 10.671C34.0304 11.413 34.9304 11.712 35.6724 11.342C36.4134 10.971 36.7134 10.071 36.3434 9.329C35.7484 8.14 34.7564 7.382 33.5014 7.114V6.5C33.5014 5.671 32.8294 5 32.0014 5C31.1734 5 30.5014 5.671 30.5014 6.5V7.167C28.6684 7.665 27.2714 9.324 27.2714 11.25C27.2714 13.593 29.1774 15.5 31.5214 15.5H32.7514C33.4404 15.5 34.0014 16.061 34.0014 16.75C34.0014 17.439 33.4404 18 32.7504 18H31.0394C30.2194 18 29.8974 17.441 29.8424 17.329C29.4724 16.588 28.5724 16.29 27.8294 16.658C27.0884 17.029 26.7884 17.929 27.1584 18.671C27.6694 19.691 28.8024 20.765 30.5004 20.96V21.5C30.5004 22.329 31.1724 23 32.0004 23C32.8284 23 33.5004 22.329 33.5004 21.5V20.924C35.4864 20.568 37.0004 18.837 37.0004 16.75Z" fill="#18193F"/>
<path d="M34.5938 42.5H40.4977" stroke="#18193F" stroke-width="3" stroke-miterlimit="10" stroke-linecap="round" stroke-linejoin="round"/>
<path d="M5.5 7.5V40.5C5.5 41.605 6.395 42.5 7.5 42.5H26.297" stroke="#18193F" stroke-width="3" stroke-miterlimit="10" stroke-linecap="round" stroke-linejoin="round"/>
<path d="M11.2969 7.89062L14.6809 18.9986L20.2339 17.2116L23.5529 30.1046L32.1059 29.3386L34.0849 34.5096L40.9079 37.2726" stroke="#18193F" stroke-width="3" stroke-miterlimit="10" stroke-linecap="round" stroke-linejoin="round"/>
</svg>
