<svg width="48" height="48" viewBox="0 0 48 48" fill="none" xmlns="http://www.w3.org/2000/svg">
<path d="M23.5 39C31.5081 39 38 32.5081 38 24.5C38 16.4919 31.5081 10 23.5 10C15.4919 10 9 16.4919 9 24.5C9 32.5081 15.4919 39 23.5 39Z" fill="#8CE7F2"/>
<path d="M30.5 30.5L42.5 42.5" stroke="#18193F" stroke-width="3" stroke-linecap="round"/>
<path d="M5.5 20.5H12C12.3 20.5 12.6 20.7 12.8 20.9L16.4 25.9C16.9 26.6 17.9 26.4 18.2 25.7L21.8 15.5C22.1 14.7 23.2 14.6 23.6 15.3L26.2 19.9C26.4 20.2 26.7 20.4 27.1 20.4H42.5" stroke="#18193F" stroke-width="3" stroke-linecap="round" stroke-linejoin="round"/>
<path d="M6.8 26.4C6 24.6 5.5 22.6 5.5 20.5C5.5 12.8 11.8 6.5 19.5 6.5C24.5 6.5 28.8 9.1 31.3 13" stroke="#18193F" stroke-width="3" stroke-miterlimit="10" stroke-linecap="round" stroke-linejoin="round"/>
<path d="M33.5016 20.5C33.5016 28.2 27.2016 34.5 19.5016 34.5C16.3016 34.5 13.4016 33.5 11.1016 31.7" stroke="#18193F" stroke-width="3" stroke-miterlimit="10" stroke-linecap="round" stroke-linejoin="round"/>
</svg>
