<svg width="48" height="48" viewBox="0 0 48 48" fill="none" xmlns="http://www.w3.org/2000/svg">
<path d="M42 44H10C8.9 44 8 43.1 8 42V24C8 22.9 8.9 22 10 22H42C43.1 22 44 22.9 44 24V42C44 43.1 43.1 44 42 44Z" fill="#A5D6A7"/>
<path d="M33.5 9.5V4.5H28.5" stroke="#18193F" stroke-width="3" stroke-linecap="round" stroke-linejoin="round"/>
<path d="M33.5 4.5L24.5 13.5L18.5 7.5L12.5 13.5" stroke="#18193F" stroke-width="3" stroke-linecap="round" stroke-linejoin="round"/>
<path d="M28.3 39.5H6.5C5.4 39.5 4.5 38.6 4.5 37.5V20.5C4.5 19.4 5.4 18.5 6.5 18.5H10.5" stroke="#18193F" stroke-width="3" stroke-linecap="round" stroke-linejoin="round"/>
<path d="M15.8984 18.5H37.4984C38.5984 18.5 39.4984 19.4 39.4984 20.5V37.5C39.4984 38.6 38.5984 39.5 37.4984 39.5H33.6984" stroke="#18193F" stroke-width="3" stroke-linecap="round" stroke-linejoin="round"/>
<path d="M22 34.5C24.4853 34.5 26.5 32.0376 26.5 29C26.5 25.9624 24.4853 23.5 22 23.5C19.5147 23.5 17.5 25.9624 17.5 29C17.5 32.0376 19.5147 34.5 22 34.5Z" stroke="#18193F" stroke-width="3" stroke-linejoin="round"/>
<path d="M34 31C35.1046 31 36 30.1046 36 29C36 27.8954 35.1046 27 34 27C32.8954 27 32 27.8954 32 29C32 30.1046 32.8954 31 34 31Z" fill="#18193F"/>
<path d="M10 31C11.1046 31 12 30.1046 12 29C12 27.8954 11.1046 27 10 27C8.89543 27 8 27.8954 8 29C8 30.1046 8.89543 31 10 31Z" fill="#18193F"/>
</svg>
