<svg width="48" height="48" viewBox="0 0 48 48" fill="none" xmlns="http://www.w3.org/2000/svg">
<path d="M37.42 16.172L29.897 8.591C29.522 8.213 29.011 8 28.477 8H24H12.909C11.303 8 10 9.303 10 10.909V41.09C10 42.697 11.303 44 12.909 44H35.09C36.697 44 38 42.697 38 41.091V17.581C38 17.053 37.791 16.547 37.42 16.172Z" fill="#FFAEC2"/>
<path d="M25.5 3.5H20H8.5C6.8 3.5 5.5 4.8 5.5 6.5V37.5C5.5 39.2 6.8 40.5 8.5 40.5H18.936" stroke="#18193F" stroke-width="3" stroke-miterlimit="10" stroke-linecap="round" stroke-linejoin="round"/>
<path d="M34.5 19.2975V12.5005H27.5C26.4 12.5005 25.5 11.6005 25.5 10.5005V9.02148" stroke="#18193F" stroke-width="3" stroke-miterlimit="10" stroke-linecap="round" stroke-linejoin="round"/>
<path d="M34.5 12.5L25.5 3.5" stroke="#18193F" stroke-width="3" stroke-miterlimit="10" stroke-linecap="round" stroke-linejoin="round"/>
<path d="M11.25 30.2969C11.738 31.1909 12.686 31.7969 13.775 31.7969H16.875C18.463 31.7969 19.75 30.5099 19.75 28.9219C19.75 27.3339 18.463 26.0469 16.875 26.0469H14.625C13.037 26.0469 11.75 24.7599 11.75 23.1719C11.75 21.5839 13.037 20.2969 14.625 20.2969H16.225C17.315 20.2969 18.263 20.9029 18.75 21.7969" stroke="#18193F" stroke-width="2.5" stroke-miterlimit="10" stroke-linecap="round" stroke-linejoin="round"/>
<path d="M15.5 20.2969V18.2969" stroke="#18193F" stroke-width="2.5" stroke-miterlimit="10" stroke-linecap="round" stroke-linejoin="round"/>
<path d="M15.5 33.7499V32.0469" stroke="#18193F" stroke-width="2.5" stroke-miterlimit="10" stroke-linecap="round" stroke-linejoin="round"/>
<path d="M34.5 44.5H27.5C26.395 44.5 25.5 43.605 25.5 42.5V40.5C25.5 39.395 26.395 38.5 27.5 38.5H40.5C41.605 38.5 42.5 39.395 42.5 40.5V42.5C42.5 43.605 41.605 44.5 40.5 44.5H39.298" stroke="#18193F" stroke-width="3" stroke-miterlimit="10" stroke-linecap="round" stroke-linejoin="round"/>
<path d="M38.5 38.5H25.5C24.395 38.5 23.5 37.605 23.5 36.5V34.5C23.5 33.395 24.395 32.5 25.5 32.5H38.5C39.605 32.5 40.5 33.395 40.5 34.5V36.5C40.5 37.605 39.605 38.5 38.5 38.5Z" stroke="#18193F" stroke-width="3" stroke-miterlimit="10" stroke-linecap="round" stroke-linejoin="round"/>
<path d="M35.043 26.5H40.5C41.605 26.5 42.5 27.395 42.5 28.5V30.5C42.5 31.605 41.605 32.5 40.5 32.5H27.5C26.395 32.5 25.5 31.605 25.5 30.5V28.5C25.5 27.395 26.395 26.5 27.5 26.5H30" stroke="#18193F" stroke-width="3" stroke-miterlimit="10" stroke-linecap="round" stroke-linejoin="round"/>
</svg>
