<svg width="25" height="25" viewBox="0 0 25 25" fill="none" xmlns="http://www.w3.org/2000/svg">
<path d="M12.4384 15.7812C12.2434 15.9762 11.9874 16.0742 11.7314 16.0742C11.4754 16.0742 11.2194 15.9762 11.0244 15.7812L7.02438 11.7812C6.63338 11.3902 6.63338 10.7582 7.02438 10.3672C7.41538 9.97622 8.04738 9.97622 8.43838 10.3672L11.7314 13.6602L20.0814 5.31022C18.2544 3.32522 15.6424 2.07422 12.7314 2.07422C7.20838 2.07422 2.73138 6.55122 2.73138 12.0742C2.73138 17.5972 7.20838 22.0742 12.7314 22.0742C18.2544 22.0742 22.7314 17.5972 22.7314 12.0742C22.7314 10.1892 22.2004 8.43222 21.2934 6.92622L12.4384 15.7812Z" fill="#008545"/>
</svg>
