<svg width="244" height="22" viewBox="0 0 244 22" fill="none" xmlns="http://www.w3.org/2000/svg">
<path d="M5.92753 21L0.439531 1.4H4.49953L8.25153 15.932L12.3395 1.4H15.6435L19.7595 15.932L23.5115 1.4H27.5715L22.0835 21H17.6875L13.9915 8.064L10.3235 21H5.92753ZM38.6162 7H42.2282V21H38.6162V19.348C37.5336 20.7107 36.0122 21.392 34.0522 21.392C32.1856 21.392 30.5802 20.6827 29.2362 19.264C27.9109 17.8267 27.2482 16.072 27.2482 14C27.2482 11.928 27.9109 10.1827 29.2362 8.764C30.5802 7.32667 32.1856 6.608 34.0522 6.608C36.0122 6.608 37.5336 7.28933 38.6162 8.652V7ZM31.9522 16.856C32.6802 17.584 33.6042 17.948 34.7242 17.948C35.8442 17.948 36.7682 17.584 37.4962 16.856C38.2429 16.1093 38.6162 15.1573 38.6162 14C38.6162 12.8427 38.2429 11.9 37.4962 11.172C36.7682 10.4253 35.8442 10.052 34.7242 10.052C33.6042 10.052 32.6802 10.4253 31.9522 11.172C31.2242 11.9 30.8602 12.8427 30.8602 14C30.8602 15.1573 31.2242 16.1093 31.9522 16.856ZM53.5116 10.472H50.3476V16.296C50.3476 16.7813 50.4689 17.136 50.7116 17.36C50.9542 17.584 51.3089 17.7147 51.7756 17.752C52.2422 17.7707 52.8209 17.7613 53.5116 17.724V21C51.0289 21.28 49.2742 21.0467 48.2476 20.3C47.2396 19.5533 46.7356 18.2187 46.7356 16.296V10.472H44.2996V7H46.7356V4.172L50.3476 3.08V7H53.5116V10.472ZM62.2848 21.392C60.1754 21.392 58.4114 20.6827 56.9928 19.264C55.5928 17.8453 54.8927 16.0907 54.8927 14C54.8927 11.9093 55.5928 10.1547 56.9928 8.736C58.4114 7.31733 60.1754 6.608 62.2848 6.608C63.6474 6.608 64.8888 6.93467 66.0088 7.588C67.1288 8.24133 67.9781 9.11867 68.5568 10.22L65.4488 12.04C65.1688 11.4613 64.7394 11.004 64.1608 10.668C63.6008 10.332 62.9661 10.164 62.2568 10.164C61.1741 10.164 60.2781 10.528 59.5688 11.256C58.8594 11.9653 58.5048 12.88 58.5048 14C58.5048 15.1013 58.8594 16.016 59.5688 16.744C60.2781 17.4533 61.1741 17.808 62.2568 17.808C62.9848 17.808 63.6288 17.6493 64.1888 17.332C64.7674 16.996 65.1968 16.5387 65.4768 15.96L68.6128 17.752C67.9968 18.8533 67.1288 19.74 66.0088 20.412C64.8888 21.0653 63.6474 21.392 62.2848 21.392ZM78.3071 6.608C79.8378 6.608 81.0978 7.12133 82.0871 8.148C83.0951 9.17467 83.5991 10.5933 83.5991 12.404V21H79.9871V12.852C79.9871 11.9187 79.7351 11.2093 79.2311 10.724C78.7271 10.22 78.0551 9.968 77.2151 9.968C76.2818 9.968 75.5351 10.2573 74.9751 10.836C74.4151 11.4147 74.1351 12.2827 74.1351 13.44V21H70.5231V1.4H74.1351V8.568C75.0124 7.26133 76.4031 6.608 78.3071 6.608ZM110.343 18.452C108.365 20.412 105.957 21.392 103.119 21.392C100.282 21.392 97.8739 20.412 95.8953 18.452C93.9353 16.4733 92.9552 14.056 92.9552 11.2C92.9552 8.344 93.9353 5.936 95.8953 3.976C97.8739 1.99733 100.282 1.008 103.119 1.008C105.957 1.008 108.365 1.99733 110.343 3.976C112.322 5.936 113.311 8.344 113.311 11.2C113.311 14.056 112.322 16.4733 110.343 18.452ZM98.6113 15.82C99.8246 17.0147 101.327 17.612 103.119 17.612C104.911 17.612 106.414 17.0147 107.627 15.82C108.841 14.6067 109.447 13.0667 109.447 11.2C109.447 9.33333 108.841 7.79333 107.627 6.58C106.414 5.36667 104.911 4.76 103.119 4.76C101.327 4.76 99.8246 5.36667 98.6113 6.58C97.3979 7.79333 96.7913 9.33333 96.7913 11.2C96.7913 13.0667 97.3979 14.6067 98.6113 15.82ZM125.236 7H128.848V21H125.236V19.432C124.358 20.7387 122.968 21.392 121.064 21.392C119.533 21.392 118.264 20.8787 117.256 19.852C116.266 18.8253 115.772 17.4067 115.772 15.596V7H119.384V15.148C119.384 16.0813 119.636 16.8 120.14 17.304C120.644 17.7893 121.316 18.032 122.156 18.032C123.089 18.032 123.836 17.7427 124.396 17.164C124.956 16.5853 125.236 15.7173 125.236 14.56V7ZM135.768 9.408C136.104 8.512 136.655 7.84 137.42 7.392C138.204 6.944 139.072 6.72 140.024 6.72V10.752C138.923 10.6213 137.933 10.8453 137.056 11.424C136.197 12.0027 135.768 12.964 135.768 14.308V21H132.156V7H135.768V9.408ZM161.904 21L160.728 17.472H152.916L151.74 21H147.568L154.428 1.4H159.216L166.104 21H161.904ZM154.148 13.86H159.524L156.836 5.852L154.148 13.86ZM174.121 21.392C172.011 21.392 170.247 20.6827 168.829 19.264C167.429 17.8453 166.729 16.0907 166.729 14C166.729 11.9093 167.429 10.1547 168.829 8.736C170.247 7.31733 172.011 6.608 174.121 6.608C175.483 6.608 176.725 6.93467 177.845 7.588C178.965 8.24133 179.814 9.11867 180.393 10.22L177.285 12.04C177.005 11.4613 176.575 11.004 175.997 10.668C175.437 10.332 174.802 10.164 174.093 10.164C173.01 10.164 172.114 10.528 171.405 11.256C170.695 11.9653 170.341 12.88 170.341 14C170.341 15.1013 170.695 16.016 171.405 16.744C172.114 17.4533 173.01 17.808 174.093 17.808C174.821 17.808 175.465 17.6493 176.025 17.332C176.603 16.996 177.033 16.5387 177.313 15.96L180.449 17.752C179.833 18.8533 178.965 19.74 177.845 20.412C176.725 21.0653 175.483 21.392 174.121 21.392ZM190.367 10.472H187.203V16.296C187.203 16.7813 187.324 17.136 187.567 17.36C187.81 17.584 188.164 17.7147 188.631 17.752C189.098 17.7707 189.676 17.7613 190.367 17.724V21C187.884 21.28 186.13 21.0467 185.103 20.3C184.095 19.5533 183.591 18.2187 183.591 16.296V10.472H181.155V7H183.591V4.172L187.203 3.08V7H190.367V10.472ZM194.706 5.32C194.108 5.32 193.586 5.10533 193.138 4.676C192.708 4.228 192.494 3.70533 192.494 3.108C192.494 2.51067 192.708 1.988 193.138 1.54C193.586 1.092 194.108 0.867999 194.706 0.867999C195.322 0.867999 195.844 1.092 196.274 1.54C196.722 1.988 196.946 2.51067 196.946 3.108C196.946 3.70533 196.722 4.228 196.274 4.676C195.844 5.10533 195.322 5.32 194.706 5.32ZM192.914 21V7H196.526V21H192.914ZM211.76 19.264C210.322 20.6827 208.568 21.392 206.496 21.392C204.424 21.392 202.669 20.6827 201.232 19.264C199.813 17.8267 199.104 16.072 199.104 14C199.104 11.928 199.813 10.1827 201.232 8.764C202.669 7.32667 204.424 6.608 206.496 6.608C208.568 6.608 210.322 7.32667 211.76 8.764C213.197 10.1827 213.916 11.928 213.916 14C213.916 16.072 213.197 17.8267 211.76 19.264ZM203.78 16.772C204.508 17.5 205.413 17.864 206.496 17.864C207.578 17.864 208.484 17.5 209.212 16.772C209.94 16.044 210.304 15.12 210.304 14C210.304 12.88 209.94 11.956 209.212 11.228C208.484 10.5 207.578 10.136 206.496 10.136C205.413 10.136 204.508 10.5 203.78 11.228C203.07 11.956 202.716 12.88 202.716 14C202.716 15.12 203.07 16.044 203.78 16.772ZM224.241 6.608C225.771 6.608 227.031 7.12133 228.021 8.148C229.029 9.17467 229.533 10.5933 229.533 12.404V21H225.921V12.852C225.921 11.9187 225.669 11.2093 225.165 10.724C224.661 10.22 223.989 9.968 223.149 9.968C222.215 9.968 221.469 10.2573 220.909 10.836C220.349 11.4147 220.069 12.2827 220.069 13.44V21H216.457V7H220.069V8.568C220.946 7.26133 222.337 6.608 224.241 6.608ZM235.949 10.976C235.949 11.3493 236.192 11.6573 236.677 11.9C237.181 12.124 237.788 12.3293 238.497 12.516C239.206 12.684 239.916 12.908 240.625 13.188C241.334 13.4493 241.932 13.8973 242.417 14.532C242.921 15.1667 243.173 15.96 243.173 16.912C243.173 18.3493 242.632 19.46 241.549 20.244C240.485 21.0093 239.15 21.392 237.545 21.392C234.67 21.392 232.71 20.2813 231.665 18.06L234.801 16.296C235.212 17.5093 236.126 18.116 237.545 18.116C238.833 18.116 239.477 17.7147 239.477 16.912C239.477 16.5387 239.225 16.24 238.721 16.016C238.236 15.7733 237.638 15.5587 236.929 15.372C236.22 15.1853 235.51 14.952 234.801 14.672C234.092 14.392 233.485 13.9533 232.981 13.356C232.496 12.74 232.253 11.9747 232.253 11.06C232.253 9.67867 232.757 8.596 233.765 7.812C234.792 7.00933 236.061 6.608 237.573 6.608C238.712 6.608 239.748 6.86933 240.681 7.392C241.614 7.896 242.352 8.624 242.893 9.576L239.813 11.256C239.365 10.304 238.618 9.828 237.573 9.828C237.106 9.828 236.714 9.93067 236.397 10.136C236.098 10.3413 235.949 10.6213 235.949 10.976Z" fill="#121214"/>
</svg>
