<svg width="153" height="99" viewBox="0 0 153 99" fill="none" xmlns="http://www.w3.org/2000/svg">
<g opacity="0.3">
<circle cx="2.25" cy="2.25" r="2.25" fill="#7562E0"/>
<circle cx="15.75" cy="2.25" r="2.25" fill="#7562E0"/>
<circle cx="29.25" cy="2.25" r="2.25" fill="#7562E0"/>
<circle cx="42.75" cy="2.25" r="2.25" fill="#7562E0"/>
<circle cx="56.25" cy="2.25" r="2.25" fill="#7562E0"/>
<circle cx="69.75" cy="2.25" r="2.25" fill="#7562E0"/>
<circle cx="83.25" cy="2.25" r="2.25" fill="#7562E0"/>
<circle cx="96.75" cy="2.25" r="2.25" fill="#7562E0"/>
<circle cx="110.25" cy="2.25" r="2.25" fill="#7562E0"/>
<circle cx="123.75" cy="2.25" r="2.25" fill="#7562E0"/>
<circle cx="137.25" cy="2.25" r="2.25" fill="#7562E0"/>
<circle cx="150.75" cy="2.25" r="2.25" fill="#7562E0"/>
<circle cx="2.25" cy="15.75" r="2.25" fill="#7562E0"/>
<circle cx="15.75" cy="15.75" r="2.25" fill="#7562E0"/>
<circle cx="29.25" cy="15.75" r="2.25" fill="#7562E0"/>
<circle cx="42.75" cy="15.75" r="2.25" fill="#7562E0"/>
<circle cx="56.25" cy="15.75" r="2.25" fill="#7562E0"/>
<circle cx="69.75" cy="15.75" r="2.25" fill="#7562E0"/>
<circle cx="83.25" cy="15.75" r="2.25" fill="#7562E0"/>
<circle cx="96.75" cy="15.75" r="2.25" fill="#7562E0"/>
<circle cx="110.25" cy="15.75" r="2.25" fill="#7562E0"/>
<circle cx="123.75" cy="15.75" r="2.25" fill="#7562E0"/>
<circle cx="137.25" cy="15.75" r="2.25" fill="#7562E0"/>
<circle cx="150.75" cy="15.75" r="2.25" fill="#7562E0"/>
<circle cx="2.25" cy="29.25" r="2.25" fill="#7562E0"/>
<circle cx="15.75" cy="29.25" r="2.25" fill="#7562E0"/>
<circle cx="29.25" cy="29.25" r="2.25" fill="#7562E0"/>
<circle cx="42.75" cy="29.25" r="2.25" fill="#7562E0"/>
<circle cx="56.25" cy="29.25" r="2.25" fill="#7562E0"/>
<circle cx="69.75" cy="29.25" r="2.25" fill="#7562E0"/>
<circle cx="83.25" cy="29.25" r="2.25" fill="#7562E0"/>
<circle cx="96.75" cy="29.25" r="2.25" fill="#7562E0"/>
<circle cx="110.25" cy="29.25" r="2.25" fill="#7562E0"/>
<circle cx="123.75" cy="29.25" r="2.25" fill="#7562E0"/>
<circle cx="137.25" cy="29.25" r="2.25" fill="#7562E0"/>
<circle cx="150.75" cy="29.25" r="2.25" fill="#7562E0"/>
<circle cx="2.25" cy="42.75" r="2.25" fill="#7562E0"/>
<circle cx="15.75" cy="42.75" r="2.25" fill="#7562E0"/>
<circle cx="29.25" cy="42.75" r="2.25" fill="#7562E0"/>
<circle cx="42.75" cy="42.75" r="2.25" fill="#7562E0"/>
<circle cx="56.25" cy="42.75" r="2.25" fill="#7562E0"/>
<circle cx="69.75" cy="42.75" r="2.25" fill="#7562E0"/>
<circle cx="83.25" cy="42.75" r="2.25" fill="#7562E0"/>
<circle cx="96.75" cy="42.75" r="2.25" fill="#7562E0"/>
<circle cx="110.25" cy="42.75" r="2.25" fill="#7562E0"/>
<circle cx="123.75" cy="42.75" r="2.25" fill="#7562E0"/>
<circle cx="137.25" cy="42.75" r="2.25" fill="#7562E0"/>
<circle cx="150.75" cy="42.75" r="2.25" fill="#7562E0"/>
<circle cx="2.25" cy="56.25" r="2.25" fill="#7562E0"/>
<circle cx="15.75" cy="56.25" r="2.25" fill="#7562E0"/>
<circle cx="29.25" cy="56.25" r="2.25" fill="#7562E0"/>
<circle cx="42.75" cy="56.25" r="2.25" fill="#7562E0"/>
<circle cx="56.25" cy="56.25" r="2.25" fill="#7562E0"/>
<circle cx="69.75" cy="56.25" r="2.25" fill="#7562E0"/>
<circle cx="83.25" cy="56.25" r="2.25" fill="#7562E0"/>
<circle cx="96.75" cy="56.25" r="2.25" fill="#7562E0"/>
<circle cx="110.25" cy="56.25" r="2.25" fill="#7562E0"/>
<circle cx="123.75" cy="56.25" r="2.25" fill="#7562E0"/>
<circle cx="137.25" cy="56.25" r="2.25" fill="#7562E0"/>
<circle cx="150.75" cy="56.25" r="2.25" fill="#7562E0"/>
<circle cx="2.25" cy="69.75" r="2.25" fill="#7562E0"/>
<circle cx="15.75" cy="69.75" r="2.25" fill="#7562E0"/>
<circle cx="29.25" cy="69.75" r="2.25" fill="#7562E0"/>
<circle cx="42.75" cy="69.75" r="2.25" fill="#7562E0"/>
<circle cx="56.25" cy="69.75" r="2.25" fill="#7562E0"/>
<circle cx="69.75" cy="69.75" r="2.25" fill="#7562E0"/>
<circle cx="83.25" cy="69.75" r="2.25" fill="#7562E0"/>
<circle cx="96.75" cy="69.75" r="2.25" fill="#7562E0"/>
<circle cx="110.25" cy="69.75" r="2.25" fill="#7562E0"/>
<circle cx="123.75" cy="69.75" r="2.25" fill="#7562E0"/>
<circle cx="137.25" cy="69.75" r="2.25" fill="#7562E0"/>
<circle cx="150.75" cy="69.75" r="2.25" fill="#7562E0"/>
<circle cx="2.25" cy="83.25" r="2.25" fill="#7562E0"/>
<circle cx="15.75" cy="83.25" r="2.25" fill="#7562E0"/>
<circle cx="29.25" cy="83.25" r="2.25" fill="#7562E0"/>
<circle cx="42.75" cy="83.25" r="2.25" fill="#7562E0"/>
<circle cx="56.25" cy="83.25" r="2.25" fill="#7562E0"/>
<circle cx="69.75" cy="83.25" r="2.25" fill="#7562E0"/>
<circle cx="83.25" cy="83.25" r="2.25" fill="#7562E0"/>
<circle cx="96.75" cy="83.25" r="2.25" fill="#7562E0"/>
<circle cx="110.25" cy="83.25" r="2.25" fill="#7562E0"/>
<circle cx="123.75" cy="83.25" r="2.25" fill="#7562E0"/>
<circle cx="137.25" cy="83.25" r="2.25" fill="#7562E0"/>
<circle cx="150.75" cy="83.25" r="2.25" fill="#7562E0"/>
<circle cx="2.25" cy="96.75" r="2.25" fill="#7562E0"/>
<circle cx="15.75" cy="96.75" r="2.25" fill="#7562E0"/>
<circle cx="29.25" cy="96.75" r="2.25" fill="#7562E0"/>
<circle cx="42.75" cy="96.75" r="2.25" fill="#7562E0"/>
<circle cx="56.25" cy="96.75" r="2.25" fill="#7562E0"/>
<circle cx="69.75" cy="96.75" r="2.25" fill="#7562E0"/>
<circle cx="83.25" cy="96.75" r="2.25" fill="#7562E0"/>
<circle cx="96.75" cy="96.75" r="2.25" fill="#7562E0"/>
<circle cx="110.25" cy="96.75" r="2.25" fill="#7562E0"/>
<circle cx="123.75" cy="96.75" r="2.25" fill="#7562E0"/>
<circle cx="137.25" cy="96.75" r="2.25" fill="#7562E0"/>
<circle cx="150.75" cy="96.75" r="2.25" fill="#7562E0"/>
</g>
</svg>
